<?xml version="1.0" standalone="no"?>
<!DOCTYPE svg PUBLIC "-//W3C//DTD SVG 1.1//EN" "http://www.w3.org/Graphics/SVG/1.1/DTD/svg11.dtd" >
<svg xmlns="http://www.w3.org/2000/svg">
<metadata>Generated by IcoMoon</metadata>
<defs>
<font id="icomoon" horiz-adv-x="1024">
<font-face units-per-em="1024" ascent="960" descent="-64" />
<missing-glyph horiz-adv-x="1024" />
<glyph unicode="&#x20;" horiz-adv-x="512" d="" />
<glyph unicode="&#xe900;" glyph-name="add-file" d="M787.079-64h-550.157c-0.121 0-0.263-0.001-0.406-0.001-70.839 0-128.313 57.22-128.725 127.961v768.039c0.413 70.781 57.887 128.001 128.726 128.001 0.143 0 0.286 0 0.429-0.001h404.189c14.844-0.012 28.178-6.465 37.361-16.714l0.042-0.047 224.552-256c8.144-9.077 13.123-21.139 13.123-34.363 0-0.027 0-0.053 0-0.080v0.004-588.8c-0.413-70.781-57.887-128.001-128.726-128.001-0.143 0-0.286 0-0.429 0.001h0.022zM410.947 396.8c-28.277 0-51.2-22.923-51.2-51.2s22.923-51.2 51.2-51.2v0h50.526v-51.2c0-27.905 22.621-50.526 50.526-50.526s50.526 22.621 50.526 50.526v0 51.2h50.526c28.277 0 51.2 22.923 51.2 51.2s-22.923 51.2-51.2 51.2v0h-50.526v51.2c0 27.905-22.621 50.526-50.526 50.526s-50.526-22.621-50.526-50.526v0-51.2zM613.053 858.705v-162.385c-0.087-0.995-0.137-2.152-0.137-3.321 0-20.834 15.763-37.987 36.013-40.183l0.179-0.016h153.007z" />
<glyph unicode="&#xe901;" glyph-name="at" d="M977.216 478.592c-1.635-42.18-7.863-82.155-18.211-120.439l0.867 3.767c-10.129-38.9-25.706-73.028-46.148-103.629l0.772 1.229c-20.075-29.764-45.762-54.184-75.722-72.23l-1.078-0.602c-30.591-17.486-67.232-27.796-106.281-27.796-2.123 0-4.24 0.030-6.349 0.091l0.31-0.007c-0.938-0.019-2.044-0.031-3.152-0.031-28.625 0-55.524 7.387-78.896 20.359l0.833-0.424c-23.414 13.296-42.141 32.453-54.548 55.515l-0.364 0.741c-31.877-44.983-83.731-73.987-142.36-73.987-1.702 0-3.398 0.024-5.088 0.073l0.248-0.006c-0.694-0.012-1.514-0.018-2.334-0.018-52.784 0-99.184 27.331-125.822 68.613l-0.356 0.589c-14.963 22.911-26.106 49.789-31.766 78.632l-0.234 1.432c-4.026 19.785-6.33 42.525-6.33 65.804 0 13.615 0.788 27.047 2.322 40.251l-0.152-1.607c5.277 47.384 16.558 90.684 33.173 131.234l-1.173-3.234c15.041 37.614 34.871 70.024 59.212 98.457l-0.396-0.473c22.103 25.814 48.987 46.826 79.375 61.814l1.457 0.65c28.116 13.539 61.133 21.451 95.998 21.451 0.766 0 1.531-0.004 2.295-0.011l-0.117 0.001c1.094 0.014 2.385 0.022 3.679 0.022 19.493 0 38.56-1.825 57.039-5.313l-1.901 0.298c17.381-3.433 32.663-8.165 47.216-14.287l-1.584 0.591c14.609-6.21 27.037-12.893 38.773-20.548l-0.949 0.58c11.52-7.424 23.168-15.104 34.688-22.976l-28.608-328.448c-0.835-5.071-1.311-10.916-1.311-16.872 0-7.619 0.78-15.056 2.266-22.235l-0.122 0.707c1.997-9.181 6.095-17.197 11.773-23.816l-0.061 0.072c5.041-5.696 11.533-9.998 18.901-12.334l0.299-0.082c6.431-2.138 13.835-3.372 21.526-3.372 17.327 0 33.192 6.26 45.457 16.641l-0.103-0.085c14.751 12.481 26.793 27.653 35.466 44.817l0.374 0.815c10.076 19.706 18.384 42.591 23.759 66.584l0.369 1.96c5.767 25.233 9.563 54.571 10.541 84.623l0.019 0.753c0.694 10.305 1.089 22.338 1.089 34.464 0 44.375-5.296 87.512-15.291 128.815l0.762-3.727c-11.253 47.346-31.739 88.774-59.586 124.133l0.514-0.677c-27.997 34.259-63.499 61.324-104.079 78.868l-1.777 0.684c-42.824 17.927-92.588 28.34-144.784 28.34-3.325 0-6.64-0.042-9.945-0.126l0.489 0.010c-1.68 0.030-3.662 0.047-5.648 0.047-53.413 0-103.954-12.297-148.947-34.215l2.019 0.888c-45.896-22.97-84.499-53.984-115.422-91.556l-0.482-0.604c-32.164-39.374-58.037-85.416-75.171-135.511l-0.925-3.113c-17.791-51.115-29.295-110.16-31.955-171.499l-0.045-1.301c-0.711-10.705-1.117-23.206-1.117-35.802 0-49.889 6.36-98.293 18.314-144.444l-0.877 3.99c12.518-48.726 34.802-91.116 64.785-126.826l-0.401 0.49c28.918-33.324 65.46-59.269 106.96-75.218l1.84-0.622c42.56-15.974 91.746-25.219 143.093-25.219 2.637 0 5.268 0.024 7.893 0.073l-0.394-0.006c35.199 0.384 69.274 4.234 102.189 11.224l-3.373-0.6c16.32 3.264 32 7.168 46.464 11.456 16.101 4.705 29.378 9.583 42.251 15.214l-2.251-0.878 20.672-92.928c-12.862-8.349-27.638-15.81-43.216-21.626l-1.584-0.518c-14.199-5.363-31.902-10.626-50.040-14.744l-2.888-0.552c-33.157-7.739-71.273-12.255-110.416-12.416h-0.112c-2.992-0.056-6.522-0.087-10.059-0.087-68.611 0-134.438 11.919-195.523 33.8l4.046-1.265c-58.104 20.998-107.447 54.049-147.004 96.364l-0.196 0.212c-39.471 44.214-69.578 97.683-86.65 156.686l-0.71 2.866c-16.263 55.422-25.619 119.092-25.619 184.948 0 12.837 0.355 25.59 1.057 38.251l-0.078-1.759c2.83 77.039 18.126 149.671 43.924 217.109l-1.556-4.629c24.565 65.206 59.163 121.268 102.494 169.298l-0.414-0.466c42.848 46.591 94.647 84.207 152.765 110.244l2.947 1.18c57.27 25.555 124.103 40.438 194.412 40.438 2.55 0 5.095-0.020 7.636-0.059l-0.384 0.005c2.873 0.058 6.259 0.092 9.653 0.092 66.849 0 130.687-12.887 189.167-36.312l-3.429 1.212c55.607-22.713 102.66-56.168 140.503-98.097l0.297-0.335c37.288-42.364 66.042-93.217 82.969-149.204l0.743-2.86c15.078-49.256 23.76-105.872 23.76-164.515 0-11.042-0.308-22.011-0.915-32.901l0.067 1.512zM417.408 414.592c-1.545-9.833-2.427-21.174-2.427-32.72 0-27.735 5.092-54.282 14.391-78.755l-0.508 1.523c8.891-21.986 30.063-37.215 54.793-37.215 0.672 0 1.342 0.011 2.008 0.034l-0.097-0.003c6.937 0.2 13.509 1.497 19.636 3.722l-0.436-0.138c8.626 3.222 16.044 7.779 22.399 13.496l-0.063-0.056c8.763 7.868 16.273 16.885 22.358 26.866l0.298 0.526c8.199 13.29 15.279 28.611 20.453 44.784l0.411 1.488 22.272 255.232c-10.23 2.896-21.989 4.597-34.133 4.672h-0.043c-0.822 0.020-1.79 0.032-2.76 0.032-20.026 0-38.906-4.911-55.5-13.594l0.66 0.315c-16.827-9.534-30.598-22.65-40.621-38.386l-0.275-0.462c-11.576-18.41-20.883-39.725-26.786-62.414l-0.35-1.586c-6.867-24.989-12.29-54.716-15.192-85.177l-0.168-2.183z" />
<glyph unicode="&#xe902;" glyph-name="bars" d="M282.483 730.483h706.207c19.501 0 35.31 15.809 35.31 35.31s-15.809 35.31-35.31 35.31v0h-706.207c-19.501 0-35.31-15.809-35.31-35.31s15.809-35.31 35.31-35.31v0zM0 553.931c-0.038 0.599-0.060 1.298-0.060 2.002 0 18.429 14.939 33.368 33.368 33.368 0.704 0 1.404-0.022 2.097-0.065l-0.095 0.005h953.379c19.501 0 35.31-15.809 35.31-35.31s-15.809-35.31-35.31-35.31v0h-953.379c-0.599-0.038-1.298-0.060-2.002-0.060-18.429 0-33.368 14.939-33.368 33.368 0 0.704 0.022 1.404 0.065 2.097l-0.005-0.095zM370.759 342.069c-0.038 0.599-0.060 1.298-0.060 2.002 0 18.429 14.939 33.368 33.368 33.368 0.704 0 1.404-0.022 2.097-0.065l-0.095 0.005h582.621c19.501 0 35.31-15.809 35.31-35.31s-15.809-35.31-35.31-35.31v0h-582.621c-0.599-0.038-1.298-0.060-2.002-0.060-18.429 0-33.368 14.939-33.368 33.368 0 0.704 0.022 1.404 0.065 2.097l-0.005-0.095zM229.517 130.207c-0.038 0.599-0.060 1.298-0.060 2.002 0 18.429 14.939 33.368 33.368 33.368 0.704 0 1.404-0.022 2.097-0.065l-0.095 0.005h706.207c19.501 0 35.31-15.809 35.31-35.31s-15.809-35.31-35.31-35.31v0h-706.207c-0.599-0.038-1.298-0.060-2.002-0.060-18.429 0-33.368 14.939-33.368 33.368 0 0.704 0.022 1.404 0.065 2.097l-0.005-0.095z" />
<glyph unicode="&#xe903;" glyph-name="bell" d="M808.892 566.852c-0.022 131.655-85.138 243.424-203.341 283.304l-2.108 0.617c0.782 4.571 1.229 9.836 1.229 15.205 0 52.294-42.392 94.686-94.686 94.686s-94.686-42.392-94.686-94.686c0-5.369 0.447-10.634 1.306-15.759l-0.077 0.555c-120.311-40.497-205.427-152.266-205.449-283.918v-259.007h597.811zM836.267 267.913h-652.561c-44.913 0-81.323-36.409-81.323-81.323s36.409-81.323 81.323-81.323v0h652.561c44.913 0 81.323 36.409 81.323 81.323s-36.409 81.323-81.323 81.323v0zM509.986 76.049c-41.473 0-75.093-33.62-75.093-75.093v0 0c1.963-39.904 34.794-71.514 75.008-71.514s73.045 31.61 75.001 71.339l0.007 0.175c0 0 0 0 0 0 0 41.413-33.523 74.996-74.913 75.093h-0.009z" />
<glyph unicode="&#xe904;" glyph-name="camera" d="M901.565 715.13h-106.852l-58.991 89.043c-22.261 33.391-61.217 53.426-101.287 53.426h-244.87c-40.070 0-79.026-20.035-101.287-53.426l-58.991-89.043h-106.852c-67.896 0-122.435-54.539-122.435-122.435v-431.861c0-67.896 54.539-122.435 122.435-122.435h779.13c67.896 0 122.435 54.539 122.435 122.435v431.861c0 67.896-54.539 122.435-122.435 122.435zM512 138.574c-152.487 0-276.035 123.548-276.035 276.035s123.548 274.922 276.035 274.922 276.035-123.548 276.035-276.035c0-151.374-123.548-274.922-276.035-274.922zM885.983 542.609c-1.113 0-2.226 0-4.452 0h-44.522c-20.035 1.113-35.617 17.809-34.504 37.843 1.113 18.922 15.583 33.391 34.504 34.504h44.522c20.035 1.113 36.73-14.47 37.843-34.504s-13.357-36.73-33.391-37.843zM512 567.096c-84.591 0-153.6-69.009-153.6-153.6s69.009-152.487 153.6-152.487 153.6 69.009 153.6 153.6c0 84.591-69.009 152.487-153.6 152.487z" />
<glyph unicode="&#xe905;" glyph-name="check" d="M994.006 645.616l-540.203-540.165c-40.003-40.010-104.893-40.010-144.934 0l-278.857 278.877c-40.018 40.010-40.018 104.909 0 144.926 40.025 40.025 104.911 40.025 144.919 0.015l206.426-206.429 467.707 467.71c40.025 40.025 104.916 39.995 144.926 0 40.010-40.018 40.010-104.893 0.015-144.934z" />
<glyph unicode="&#xe906;" glyph-name="chevron-down" d="M521.671 137.614c-0.030 0-0.067 0-0.103 0-20.139 0-38.369 8.176-51.551 21.389l-448.627 448.627c-13.22 13.22-21.396 31.483-21.396 51.655 0 40.345 32.706 73.051 73.051 73.051 20.173 0 38.435-8.177 51.655-21.396l396.971-396.971 396.971 396.971c13.22 13.22 31.483 21.396 51.655 21.396 40.345 0 73.051-32.706 73.051-73.051 0-20.173-8.177-38.435-21.396-51.655v0l-448.626-448.626c-13.184-13.215-31.413-21.39-51.552-21.39-0.036 0-0.072 0-0.108 0h0.006z" />
<glyph unicode="&#xe907;" glyph-name="chevron-left" d="M227.556 438.329c0 0.030 0 0.067 0 0.103 0 20.139 8.176 38.369 21.389 51.551l448.627 448.627c13.22 13.22 31.483 21.396 51.655 21.396 40.345 0 73.051-32.706 73.051-73.051 0-20.173-8.177-38.435-21.396-51.655l-396.971-396.971 396.971-396.971c13.22-13.22 21.396-31.483 21.396-51.655 0-40.345-32.706-73.051-73.051-73.051-20.173 0-38.435 8.177-51.655 21.396v0l-448.626 448.626c-13.215 13.184-21.39 31.413-21.39 51.552 0 0.036 0 0.072 0 0.108v-0.006z" />
<glyph unicode="&#xe908;" glyph-name="close" d="M632.668 447.966l366.174 366.174c15.491 15.449 25.076 36.815 25.076 60.419 0 47.124-38.201 85.325-85.325 85.325-23.52 0-44.817-9.516-60.251-24.908l-366.172-366.172-366.174 366.174c-15.467 15.509-36.856 25.104-60.487 25.104-47.177 0-85.421-38.244-85.421-85.421 0-23.546 9.527-44.867 24.936-60.319l366.172-366.172-366.174-366.174c-15.781-15.492-25.562-37.049-25.562-60.891 0-47.113 38.192-85.305 85.305-85.305 23.842 0 45.399 9.781 60.879 25.549l366.187 366.187 366.174-366.174c15.378-15.096 36.472-24.414 59.743-24.414 47.113 0 85.305 38.192 85.305 85.305 0 23.271-9.318 44.365-24.426 59.756l0.013-0.013z" />
<glyph unicode="&#xe909;" glyph-name="download" d="M876.089 491.198c6.605 16.675 10.435 35.993 10.435 56.206 0 86.461-70.070 156.556-156.521 156.596h-0.004c-32.403-0.011-62.488-9.931-87.389-26.895l0.539 0.347c-45.886 78.638-129.852 130.639-225.963 130.639-143.918 0-260.602-116.599-260.741-260.484v-0.013c0-4.399 0-8.799 0.341-13.198-92.265-33.011-157.093-119.679-157.093-221.488 0-129.613 105.072-234.686 234.686-234.686 0.095 0 0.189 0 0.284 0h599.708c115.054 0.197 208.247 93.511 208.247 208.592 0 100.311-70.806 184.084-165.165 204.066l-1.363 0.242zM659.532 346.662l-171.842-171.729c-4.726-4.681-11.232-7.574-18.413-7.574s-13.687 2.893-18.415 7.576l-171.727 171.727c-4.72 4.716-7.64 11.233-7.64 18.432 0 14.382 11.653 26.043 26.033 26.055h106.573v182.5c0.043 14.373 11.683 26.012 26.051 26.055h78.056c14.373-0.043 26.012-11.683 26.055-26.051v-182.504h106.686c0.016 0 0.035 0 0.054 0 14.39 0 26.055-11.665 26.055-26.055 0-7.199-2.92-13.716-7.64-18.432v0z" />
<glyph unicode="&#xe90a;" glyph-name="download-attachment" d="M950.856 301.715c-20.199 0-36.572-16.374-36.572-36.572v-219.428c0-20.199-16.374-36.572-36.572-36.572h-731.425c-20.199 0-36.572 16.374-36.572 36.572v219.428c0 20.199-16.374 36.572-36.572 36.572s-36.572-16.374-36.572-36.572v-219.428c0-60.594 49.121-109.714 109.714-109.714h731.429c60.594 0 109.714 49.121 109.714 109.714v219.428c0 20.199-16.374 36.572-36.572 36.572zM719.886 327.57c-14.173 13.686-36.641 13.686-50.811 0l-120.503-120.428v716.286c0 20.199-16.374 36.572-36.572 36.572s-36.572-16.374-36.572-36.572v-716.288l-120.431 120.431c-14.529 14.031-37.68 13.629-51.711-0.898-13.689-14.173-13.689-36.641 0-50.814l182.856-182.856c14.265-14.299 37.421-14.329 51.72-0.066 0.021 0.021 0.043 0.043 0.066 0.066l182.856 182.856c14.034 14.529 13.631 37.68-0.898 51.711z" />
<glyph unicode="&#xe90b;" glyph-name="edit" horiz-adv-x="1029" d="M949.928 317.4c-14.15 0-25.62-11.471-25.62-25.62v0-227.562c0-42.493-34.431-76.944-76.916-76.977h-719.232c-42.468 0.033-76.886 34.451-76.919 76.916v668.107c0.033 42.468 34.451 76.886 76.916 76.919h227.565c14.15 0 25.62 11.471 25.62 25.62s-11.471 25.62-25.62 25.62h-227.562c-70.782-0.099-128.127-57.485-128.16-128.273v-668.107c0.099-70.741 57.419-128.061 128.15-128.16h719.237c70.741 0.099 128.061 57.419 128.16 128.15v227.745c0 14.15-11.471 25.62-25.62 25.62v0zM965.381 926.246c-20.871 20.883-49.711 33.799-81.567 33.799s-60.696-12.917-81.566-33.799l-457.274-457.274c-3.037-3.040-5.314-6.84-6.521-11.090l-0.044-0.181-60.129-217.105c-0.594-2.057-0.936-4.419-0.936-6.862 0-14.15 11.471-25.62 25.62-25.62 2.442 0 4.805 0.342 7.042 0.98l-0.181-0.044 217.105 60.129c4.431 1.251 8.23 3.528 11.271 6.565v0l457.274 457.332c20.841 20.89 33.727 49.724 33.727 81.567s-12.887 60.676-33.73 81.569l0.002-0.002zM400.804 452.299l374.254 374.254 120.723-120.723-374.254-374.254zM376.694 403.905l96.439-96.439-133.621-36.949zM959.223 769.271l-27.189-27.189-120.723 120.723 27.189 27.189c11.577 11.641 27.605 18.845 45.315 18.845s33.738-7.204 45.312-18.842l30.097-30.097c11.641-11.577 18.845-27.605 18.845-45.315s-7.204-33.738-18.842-45.312l-0.003-0.003z" />
<glyph unicode="&#xe90c;" glyph-name="file" d="M918.72 758.72l-192 192c-6.038 5.99-14.214 9.328-22.72 9.28h-512c-53.020 0-96-42.98-96-96v-832c0-53.020 42.98-96 96-96h640c53.020 0 96 42.98 96 96v704c0.050 8.506-3.29 16.68-9.28 22.72zM864 32c0-17.674-14.326-32-32-32h-640c-17.674 0-32 14.326-32 32v832c0 17.674 14.326 32 32 32h480v-128c0-35.346 28.654-64 64-64h128v-672zM736 192h64v-64h-64v64zM224 512h576v-64h-576v64zM224 352h576v-64h-576v64zM224 192h448v-64h-448v64z" />
<glyph unicode="&#xe90d;" glyph-name="gear" d="M512 576c-70.57 0-128-57.43-128-128s57.43-128 128-128 128 57.43 128 128-57.43 128-128 128zM989.398 535.040l-56.49 10.88c-25.302 4.822-45.142 21.376-54.57 45.27-9.43 24.022-6.102 49.664 9.174 70.442l35.456 48.384c12.458 16.938 10.624 40.49-4.266 55.338l-76.586 76.586c-14.422 14.464-37.206 16.598-54.058 5.162l-47.658-32.214c-21.248-14.464-46.934-16.81-70.614-6.57-23.594 10.326-39.424 30.806-43.306 56.278l-9.13 59.222c-3.206 20.822-21.126 36.182-42.204 36.182h-108.288c-20.438 0-38.016-14.506-41.898-34.602l-14.038-72.96c-4.736-24.704-20.778-44.416-44.032-54.016-23.254-9.686-48.598-7.082-69.418 7.040l-61.526 41.642c-16.854 11.434-39.552 9.302-54.058-5.162l-76.586-76.588c-14.89-14.848-16.726-38.4-4.266-55.338l35.456-48.426c15.274-20.736 18.602-46.378 9.174-70.4-9.43-23.894-29.27-40.448-54.614-45.27l-56.448-10.88c-20.098-3.882-34.604-21.462-34.604-41.898v-108.288c0-21.078 15.36-38.998 36.182-42.198l59.222-9.13c25.472-3.882 45.952-19.712 56.278-43.306 10.282-23.594 7.894-49.322-6.57-70.656l-32.214-47.616c-11.478-16.896-9.302-39.594 5.162-54.058l76.586-76.586c14.89-14.934 38.4-16.64 55.338-4.266l48.426 35.456c20.736 15.232 46.336 18.518 70.4 9.174 23.894-9.43 40.448-29.27 45.27-54.614l10.88-56.448c3.882-20.1 21.462-34.606 41.898-34.606h108.288c21.078 0 38.998 15.36 42.198 36.182l6.4 41.642c4.010 26.070 20.266 46.762 44.586 56.79 24.15 10.070 50.39 6.954 71.68-8.662l34.006-24.918c16.854-12.374 40.448-10.666 55.338 4.266l76.586 76.586c14.464 14.464 16.64 37.162 5.162 54.058l-32.214 47.658c-14.464 21.29-16.854 47.018-6.57 70.614 10.326 23.594 30.806 39.424 56.278 43.306l59.222 9.13c20.822 3.2 36.182 21.12 36.182 42.198v108.288c0 20.44-14.506 38.020-34.602 41.902zM512 234.666c-117.632 0-213.334 95.702-213.334 213.334s95.702 213.334 213.334 213.334 213.334-95.702 213.334-213.334-95.702-213.334-213.334-213.334z" />
<glyph unicode="&#xe90e;" glyph-name="gear-o" d="M544.132-64h-64.266c-51.978 0-94.268 42.288-94.268 94.266v21.742c-22.098 7.060-43.568 15.972-64.194 26.646l-15.408-15.408c-37.318-37.364-97.096-36.268-133.33 0.014l-45.422 45.42c-36.298 36.258-37.342 96.016 0.012 133.33l15.396 15.396c-10.674 20.626-19.584 42.092-26.646 64.194h-21.74c-51.976 0-94.266 42.288-94.266 94.266v64.268c0 51.978 42.29 94.266 94.268 94.266h21.74c7.062 22.1 15.972 43.568 26.646 64.194l-15.408 15.406c-37.332 37.292-36.302 97.056 0.012 133.33l45.426 45.424c36.318 36.368 96.082 37.276 133.328-0.012l15.394-15.394c20.626 10.672 42.096 19.584 64.194 26.646v21.74c0 51.978 42.288 94.266 94.268 94.266h64.266c51.978 0 94.266-42.288 94.266-94.266v-21.742c22.098-7.060 43.568-15.972 64.194-26.646l15.408 15.408c37.318 37.364 97.096 36.268 133.33-0.014l45.422-45.42c36.298-36.258 37.342-96.016-0.012-133.33l-15.396-15.396c10.674-20.626 19.584-42.092 26.646-64.194h21.74c51.978 0 94.268-42.288 94.268-94.266v-64.268c0-51.978-42.29-94.266-94.268-94.266h-21.74c-7.062-22.1-15.972-43.568-26.646-64.194l15.408-15.408c37.332-37.292 36.302-97.056-0.012-133.33l-45.426-45.424c-36.318-36.368-96.082-37.276-133.328 0.012l-15.394 15.394c-20.626-10.672-42.096-19.584-64.194-26.646v-21.742c0-51.974-42.288-94.262-94.268-94.262zM331.434 141.66c28.654-16.946 59.494-29.748 91.662-38.050 13.248-3.418 22.504-15.366 22.504-29.048v-44.296c0-18.894 15.374-34.266 34.268-34.266h64.266c18.894 0 34.268 15.372 34.268 34.266v44.296c0 13.682 9.256 25.63 22.504 29.048 32.168 8.302 63.008 21.104 91.662 38.050 11.79 6.972 26.8 5.076 36.486-4.61l31.376-31.378c13.528-13.544 35.252-13.23 48.448-0.014l45.454 45.452c13.164 13.148 13.604 34.876 0.012 48.45l-31.39 31.39c-9.684 9.684-11.58 24.696-4.61 36.484 16.946 28.652 29.746 59.492 38.048 91.662 3.42 13.248 15.368 22.502 29.048 22.502h44.294c18.894 0 34.268 15.372 34.268 34.266v64.268c0 18.894-15.374 34.266-34.268 34.266h-44.294c-13.682 0-25.628 9.256-29.048 22.502-8.302 32.17-21.104 63.010-38.048 91.662-6.97 11.788-5.074 26.8 4.61 36.484l31.378 31.378c13.564 13.548 13.21 35.268 0.012 48.45l-45.45 45.45c-13.174 13.192-34.902 13.578-48.45 0.012l-31.388-31.39c-9.684-9.686-24.7-11.582-36.486-4.61-28.654 16.946-59.494 29.748-91.662 38.050-13.248 3.418-22.504 15.366-22.504 29.048v44.3c0 18.894-15.374 34.266-34.268 34.266h-64.266c-18.894 0-34.268-15.372-34.268-34.266v-44.296c0-13.682-9.256-25.63-22.504-29.048-32.168-8.302-63.008-21.104-91.662-38.050-11.792-6.97-26.802-5.074-36.486 4.61l-31.376 31.378c-13.528 13.544-35.254 13.23-48.448 0.014l-45.454-45.452c-13.164-13.148-13.604-34.874-0.012-48.45l31.39-31.39c9.684-9.684 11.58-24.696 4.61-36.484-16.946-28.652-29.746-59.492-38.048-91.662-3.42-13.248-15.368-22.502-29.048-22.502h-44.296c-18.894-0.002-34.268-15.374-34.268-34.268v-64.268c0-18.894 15.374-34.266 34.268-34.266h44.294c13.682 0 25.628-9.256 29.048-22.502 8.302-32.17 21.104-63.010 38.048-91.662 6.97-11.788 5.074-26.8-4.61-36.484l-31.378-31.378c-13.564-13.548-13.21-35.268-0.012-48.45l45.45-45.45c13.174-13.192 34.902-13.578 48.45-0.012l31.388 31.39c7.136 7.134 21.982 13.188 36.488 4.608zM512 225.2c-122.854 0-222.8 99.948-222.8 222.8s99.946 222.8 222.8 222.8 222.8-99.948 222.8-222.8-99.946-222.8-222.8-222.8zM512 610.8c-89.77 0-162.8-73.032-162.8-162.8s73.032-162.8 162.8-162.8 162.8 73.032 162.8 162.8-73.030 162.8-162.8 162.8z" />
<glyph unicode="&#xe90f;" glyph-name="home" d="M1021.051 495.841l-484.966 433.684c-0.801 0.805-1.702 1.51-2.682 2.096l-0.062 0.034c-5.131 4.884-12.090 7.888-19.751 7.888-7.32 0-14-2.743-19.066-7.258l0.029 0.025-484.966-433.725c-5.59-5.245-9.072-12.679-9.072-20.927 0-15.835 12.837-28.672 28.672-28.672 7.086 0 13.571 2.57 18.575 6.829l-0.041-0.034 87.45 78.234v-505.774c0.047-39.773 32.276-72.002 72.044-72.049h152.949c37.296 0.023 67.532 30.216 67.625 67.493v257.238c0 5.746 4.658 10.404 10.404 10.404v0h154.501c5.746 0 10.404-4.658 10.404-10.404v-257.229c0.023-37.339 30.286-67.602 67.623-67.625h152.988c41.015 4.877 72.516 39.449 72.516 81.378 0 3.077-0.17 6.113-0.5 9.102l0.033-0.368v485.048l87.286-78.193c5.042-4.505 11.733-7.258 19.066-7.258 8.495 0 16.128 3.695 21.378 9.565l0.024 0.028c4.355 5.065 7.007 11.705 7.007 18.963 0 8.503-3.639 16.155-9.444 21.486l-0.021 0.019zM838.328 354.447v-307.569c0-20.48-10.158-33.055-14.828-33.055h-153.027c-5.746 0-10.404 4.658-10.404 10.404v0 256.696c-0.023 37.339-30.286 67.602-67.623 67.625h-154.503c-37.339-0.023-67.602-30.286-67.625-67.623v-257.231c0-5.746-4.658-10.404-10.404-10.404v0h-153.027c-8.18 0.023-14.804 6.648-14.828 14.825v557.058l321.741 287.416 324.526-290.161v-228.065z" />
<glyph unicode="&#xe910;" glyph-name="image" d="M906.484 710.875v-12.386h-261.51v261.51h12.386c13.542-0.010 25.799-5.505 34.669-14.384v0l199.924-199.924c8.967-8.885 14.521-21.201 14.531-34.814v-0.002zM628.59 633.295c-26.936 0.109-48.758 21.846-49.006 48.738v277.967h-408.625c-27.092 0-49.054-21.962-49.054-49.054v0-948.029c0-27.092 21.962-49.054 49.054-49.054v0h686.47c27.092 0 49.054 21.962 49.054 49.054v0 670.379zM351.817 600.625c54.073-0.111 97.865-43.972 97.865-98.060 0-54.157-43.903-98.060-98.060-98.060-54.071 0-97.921 43.764-98.060 97.803v0.013c0 0 0 0 0 0 0 54.157 43.903 98.060 98.060 98.060 0.086 0 0.171 0 0.257 0h-0.013zM776.777 110.275h-523.215l0.975 99.084 80.75 80.75c4.213 4.146 9.997 6.706 16.379 6.706 6.858 0 13.025-2.955 17.298-7.662l0.017-0.019 80.75-80.75 211.48 211.48c4.421 4.469 10.555 7.236 17.335 7.236s12.914-2.767 17.333-7.234l80.752-80.752z" />
<glyph unicode="&#xe911;" glyph-name="link" d="M624.794 560.87c-12.13 12.202-25.579 23.018-40.099 32.25-38.457 24.626-83.165 37.711-128.831 37.711-63.383 0.118-124.19-25.065-168.93-69.961l-217.049-217.219c-44.664-44.75-69.767-105.381-69.807-168.606-0.084-131.936 106.801-238.959 238.737-239.043 63.285-0.22 124.036 24.844 168.76 69.619l179.168 179.168c3.255 3.227 5.073 7.631 5.047 12.214-0.054 9.424-7.739 17.019-17.163 16.965h-6.825c-37.433-0.132-74.533 7.057-109.206 21.158-6.389 2.63-13.732 1.146-18.599-3.753l-128.831-129.001c-40.005-40.005-104.865-40.005-144.87 0s-40.005 104.865 0 144.87l217.903 217.731c39.973 39.923 104.727 39.923 144.7 0 26.939-25.353 68.96-25.353 95.897 0 11.59 11.6 18.617 26.985 19.794 43.342 1.246 19.546-5.963 38.689-19.796 52.555zM953.951 890.027c-93.297 93.297-244.562 93.297-337.859 0l-178.998-178.826c-4.915-4.939-6.333-12.368-3.583-18.771 2.718-6.421 9.068-10.542 16.039-10.408h6.313c37.389 0.068 74.429-7.177 109.036-21.33 6.389-2.63 13.732-1.146 18.599 3.753l128.489 128.319c40.005 40.005 104.865 40.005 144.87 0s40.005-104.865 0-144.87l-160.057-159.885-1.366-1.536-55.968-55.628c-39.973-39.923-104.727-39.923-144.7 0-26.939 25.353-68.96 25.353-95.897 0-11.664-11.688-18.697-27.207-19.794-43.682-1.248-19.546 5.961-38.689 19.794-52.557 19.75-19.834 42.858-36.010 68.254-47.777 3.583-1.706 7.167-3.071 10.75-4.607s7.337-2.73 10.92-4.095c3.583-1.366 7.337-2.56 10.92-3.583l10.068-2.73c6.825-1.706 13.652-3.071 20.646-4.265 8.426-1.252 16.913-2.050 25.425-2.39h12.968l10.238 1.194c3.753 0.17 7.679 1.024 12.116 1.024h5.801l11.774 1.706 5.461 1.024 9.896 2.048h1.878c41.914 10.528 80.188 32.23 110.742 62.795l217.219 217.219c93.303 93.297 93.303 244.562 0.006 337.859z" />
<glyph unicode="&#xe912;" glyph-name="logout" d="M494.656-5.324h-267.083c-72.584 0-131.477 59.11-131.477 131.477v643.694c0 72.584 59.11 131.477 131.477 131.477h271.43c16.299 0 29.338 13.039 29.338 29.338s-13.039 29.338-29.338 29.338h-271.43c-104.964 0-190.153-85.406-190.153-190.153v-643.694c0-104.964 85.406-190.153 190.153-190.153h267.083c16.299 0 29.338 13.039 29.338 29.338s-13.256 29.338-29.338 29.338zM977.97 468.645l-186.458 186.458c-11.518 11.518-29.99 11.518-41.508 0s-11.518-29.99 0-41.508l136.475-136.475h-595.233c-16.299 0-29.338-13.039-29.338-29.338s13.039-29.338 29.338-29.338h595.233l-136.475-136.475c-11.518-11.518-11.518-29.99 0-41.508 5.65-5.65 13.256-8.693 20.645-8.693s14.995 2.825 20.645 8.693l186.458 186.458c11.735 11.735 11.735 30.424 0.217 41.725z" />
<glyph unicode="&#xe913;" glyph-name="mail-open" d="M1005.619 574.208c0.004 0.329 0.007 0.717 0.007 1.106 0 33.949-18.115 63.668-45.207 80.016l-0.419 0.235-457.216 227.635-457.267-227.635c-27.059-17.52-44.872-47.316-45.515-81.313l-0.001-0.095v-457.165c0.145-52.848 42.947-95.65 95.781-95.795h814.094c52.848 0.145 95.65 42.947 95.795 95.781v0.014zM502.835 344.525l-384.666 251.392 384.614 191.488 384.666-191.539z" />
<glyph unicode="&#xe914;" glyph-name="message" d="M149.050-2.817h-72.558l51.307 51.307c27.664 27.664 44.939 63.645 49.584 102.678-72.189 47.374-124.977 109.701-153.234 181.178-28.237 71.423-31.786 150.048-10.261 227.376 25.827 92.786 86.403 177.357 170.565 238.138 91.458 66.046 205.312 100.957 329.257 100.957 156.137 0 287.744-44.859 380.586-129.725 83.64-76.457 129.703-179.585 129.703-290.392 0-53.834-10.962-106.215-32.579-155.688-22.371-51.195-55.128-96.779-97.362-135.484-92.967-85.2-224.491-130.236-380.349-130.236-57.859 0-118.234 7.724-172.138 21.898-51.022-52.341-120.162-82.007-192.521-82.007zM513.711 838.708c-248.528 0-401.027-148.215-441.915-295.105-38.638-138.812 18.319-269.975 152.362-350.866l14.977-9.038-0.461-17.486c-0.914-34.611-9.165-67.947-23.933-98.082 35.963 12.168 68.596 34.228 94.151 64.419l12.707 15.013 18.844-5.636c52.882-15.817 114.415-24.526 173.268-24.526 309.305 0 450.18 187.285 450.18 361.299 0 93.722-39.119 181.096-110.152 246.026-81.574 74.567-199.155 113.983-340.028 113.983z" />
<glyph unicode="&#xe915;" glyph-name="messenger" d="M513.109 960c-5.478 0.217-11.908 0.341-18.368 0.341-273.241 0-494.746-221.505-494.746-494.746 0-0.802 0.002-1.604 0.006-2.405v0.124c-0.023-1.77-0.037-3.861-0.037-5.954 0-143.271 62.063-272.045 160.771-360.906l0.439-0.389c17.254-15.521 13.858-24.46 16.63-120.222 0.788-22.112 18.903-39.738 41.135-39.738 5.949 0 11.603 1.262 16.709 3.533l-0.262-0.104c109.274 48.089 110.868 51.9 129.161 46.842 316.527-87.1 659.523 115.441 659.523 477.007 0.011 1.232 0.017 2.688 0.017 4.146 0 272.169-220.637 492.806-492.806 492.806-6.391 0-12.753-0.122-19.084-0.363l0.912 0.028zM821.251 577.784l-150.711-238.573c-13.896-21.768-37.926-35.994-65.279-35.994-17.329 0-33.323 5.71-46.206 15.351l0.201-0.144-120.153 90.011c-5.109 3.861-11.569 6.184-18.57 6.184s-13.461-2.323-18.649-6.241l0.078 0.057-161.589-122.716c-4.060-3.152-9.229-5.053-14.841-5.053-13.432 0-24.322 10.889-24.322 24.322 0 4.86 1.426 9.387 3.881 13.186l-0.058-0.095 150.918 238.573c13.878 21.784 37.906 36.025 65.26 36.025 17.339 0 33.342-5.722 46.223-15.381l-0.2 0.143 119.875-89.733c5.109-3.861 11.569-6.184 18.57-6.184s13.461 2.323 18.649 6.241l-0.078-0.057 161.867 122.578c4.049 3.145 9.204 5.041 14.802 5.041 13.394 0 24.252-10.858 24.252-24.252 0-4.828-1.411-9.327-3.843-13.106l0.058 0.096z" />
<glyph unicode="&#xe916;" glyph-name="moon" d="M999.082 376.791c-10.475 2.619-20.951 0-30.116-6.547-34.045-28.807-73.327-52.377-116.538-68.089-40.592-15.713-85.112-23.569-132.251-23.569-106.062 0-202.959 43.211-272.358 112.609s-112.609 166.295-112.609 272.358c0 44.52 7.856 87.731 20.951 127.013 14.404 41.901 35.354 79.874 62.852 112.609 11.785 14.404 9.166 35.354-5.238 47.139-9.166 6.547-19.641 9.166-30.116 6.547-111.3-30.116-208.197-96.897-277.595-185.937-66.78-87.731-106.062-196.412-106.062-314.259 0-142.726 57.614-272.358 151.892-366.636s222.6-151.892 366.636-151.892c120.466 0 231.766 41.901 320.806 111.3 90.349 70.708 155.82 171.533 183.318 286.761 5.238 18.332-5.238 36.664-23.569 40.592z" />
<glyph unicode="&#xe917;" glyph-name="paperclip" d="M980.633 587.065c-16.708 16.618-43.723 16.544-60.341-0.162l-512.908-515.682c-66.544-66.544-174.62-66.544-241.288 0.090-66.618 66.652-66.618 174.728 0.008 241.354l528.090 530.864c41.545 41.543 109.089 41.543 150.754-0.090 41.653-41.653 41.653-109.189-0.010-150.854l-437.474-437.47c-0.028-0.028-0.052-0.060-0.080-0.088-16.666-16.574-43.601-16.552-60.233 0.080-16.66 16.66-16.66 43.663 0 60.323l211.165 211.209c16.66 16.664 16.658 43.681-0.006 60.341s-43.681 16.658-60.341-0.006l-211.163-211.205c-49.983-49.983-49.983-131.017 0.004-181.002 49.985-49.985 131.019-49.985 181.006 0 0.058 0.058 0.104 0.12 0.16 0.178l437.302 437.302c74.99 74.99 74.99 196.557 0 271.546-75 74.946-196.559 74.946-271.504 0l-528.090-530.868c-99.87-99.87-99.87-261.964 0.072-361.956 100.008-99.956 262.104-99.956 362.052-0.008l512.99 515.762c16.616 16.708 16.542 43.723-0.164 60.341z" />
<glyph unicode="&#xe918;" glyph-name="pdf" d="M493.568 436.736c-5.167 16.787-8.143 36.084-8.143 56.076 0 14.069 1.474 27.795 4.276 41.030l-0.228-1.288c17.164 0 15.506-75.386 4.096-95.817zM490.106 340.285c-18.515-50.28-38.057-92.511-60.482-132.92l2.456 4.823c36.201 16.946 79.045 32.267 123.471 43.633l5.211 1.131c-28.885 22.545-52.573 50.28-69.965 81.96l-0.691 1.374zM297.838 85.309c0-1.658 26.965 11.020 71.29 82.115-28.698-22.508-52.501-49.762-70.567-80.771l-0.723-1.344zM628.59 633.295h277.943v-670.379c0.001-0.087 0.001-0.19 0.001-0.293 0-26.93-21.831-48.762-48.762-48.762-0.103 0-0.206 0-0.309 0.001h-686.503c-0.087-0.001-0.19-0.001-0.293-0.001-26.93 0-48.762 21.831-48.762 48.762 0 0.103 0 0.206 0.001 0.309v-0.016 948.029c-0.001 0.087-0.001 0.19-0.001 0.293 0 26.93 21.831 48.762 48.762 48.762 0.103 0 0.206 0 0.309-0.001h408.609v-277.943c0.248-26.916 22.070-48.653 48.995-48.762h0.011zM612.254 282.21c-40.694 25.28-71.401 63.329-86.807 108.466l-0.428 1.443c9.606 27.784 15.153 59.804 15.153 93.12 0 13.416-0.9 26.622-2.642 39.56l0.166-1.51c-3.433 25.214-24.826 44.438-50.709 44.438-20.791 0-38.686-12.405-46.685-30.217l-0.13-0.324c-1.866-13.376-2.931-28.83-2.931-44.533 0-40.472 7.077-79.291 20.061-115.287l-0.746 2.367c-29.786-71.817-57.734-129.527-88.395-185.54l5.012 9.997s0 0-0.39 0c-55.394-28.379-150.382-90.941-111.372-138.923 11.009-11.949 26.478-19.643 43.748-20.426l0.137-0.005c36.571 0 73.143 36.766 124.83 126.245 44.196 17.276 98.177 33.589 153.65 45.946l7.752 1.45c37.643-21.854 82.193-36.184 129.74-39.775l1.039-0.063c0.48-0.016 1.045-0.025 1.611-0.025 29.22 0 52.907 23.687 52.907 52.907 0 13.95-5.399 26.638-14.221 36.091l0.029-0.031c-28.379 27.794-110.933 19.797-150.382 14.629zM892.343 745.448l-200.411 200.265c-8.825 8.828-21.018 14.288-34.486 14.288-0.082 0-0.164 0-0.245-0.001h-12.226v-261.51h261.51v12.434c0 0.055 0 0.12 0 0.185 0 13.395-5.401 25.529-14.144 34.342l0.003-0.003zM741.181 223.695c8.387 5.51-4.876 24.381-87.43 18.383 75.386-32.134 87.040-18.383 87.040-18.383z" />
<glyph unicode="&#xe919;" glyph-name="phone" d="M994.53 158.222c-52.22 45.594-111.235 85.606-174.806 117.949l-4.886 2.256c-53.88 25.846-73.573 25.299-111.726-2.12-31.726-22.906-52.239-44.239-88.889-36.239-70.195 32.326-129.556 76.85-177.838 131.405l-0.487 0.56c-55.205 48.7-99.746 108.081-130.617 175.061l-1.349 3.264c-7.726 36.786 13.675 57.026 36.239 88.889 27.35 38.154 28.239 57.846 2.12 111.726-34.389 68.438-74.395 127.426-120.962 180.515l0.825-0.96c-39.179 39.179-47.863 30.632-69.607 22.906-24.535-10.495-45.473-21.935-65.166-35.093l1.439 0.905c-32.885-18.974-59.028-46.392-75.94-79.329l-0.504-1.081c-15.179-32.821-32.821-93.812 56.752-252.991 69.496-126.902 152.116-235.938 248.363-331.236l0.116-0.114c95.451-96.294 204.478-178.905 324.023-244.778l7.327-3.701c159.453-89.573 220.444-72 252.991-56.752 34.274 17.217 61.858 43.439 80.265 75.589l0.487 0.924c12.253 18.253 23.693 39.191 33.2 61.161l0.988 2.565c8.274 20.718 17.094 29.675-22.359 68.718z" />
<glyph unicode="&#xe91a;" glyph-name="project" d="M496 576h32v32c17.673 0 32 14.327 32 32v0 32c0 17.673-14.327 32-32 32v0h-32v32h64v32h-32v32h-32v-32c-17.673 0-32-14.327-32-32v0-32c0-17.673 14.327-32 32-32v0h32v-32h-64v-32h32zM512 224c35.346 0 64 28.654 64 64s-28.654 64-64 64c-35.346 0-64-28.654-64-64v0c0-35.346 28.654-64 64-64v0zM512 320c17.673 0 32-14.327 32-32s-14.327-32-32-32c-17.673 0-32 14.327-32 32v0c0 17.673 14.327 32 32 32v0zM461.808 166.816l2.672-10.688c1.794-7.019 8.060-12.126 15.52-12.128h64c7.46 0.002 13.726 5.109 15.496 12.017l0.024 0.111 2.672 10.688 9.456-5.68c2.347-1.428 5.185-2.273 8.22-2.273 4.42 0 8.421 1.792 11.316 4.689l45.264 45.264c2.897 2.896 4.689 6.897 4.689 11.316 0 3.035-0.845 5.873-2.313 8.291l0.040-0.071-5.68 9.456 10.688 2.672c7.019 1.794 12.126 8.060 12.128 15.52v0 64c-0.002 7.46-5.109 13.726-12.017 15.496l-0.111 0.024-10.688 2.672 5.68 9.456c1.428 2.347 2.273 5.185 2.273 8.22 0 4.42-1.792 8.421-4.689 11.316l-45.264 45.264c-2.896 2.897-6.897 4.689-11.316 4.689-3.035 0-5.873-0.845-8.291-2.313l0.071 0.040-9.456-5.68-2.672 10.688c-1.794 7.019-8.060 12.126-15.52 12.128h-64c-7.46-0.002-13.726-5.109-15.496-12.017l-0.024-0.111-2.672-10.688-9.456 5.68c-2.347 1.428-5.185 2.273-8.22 2.273-4.42 0-8.421-1.792-11.316-4.689l-45.264-45.264c-2.897-2.896-4.689-6.897-4.689-11.316 0-3.035 0.845-5.873 2.313-8.291l-0.040 0.071 5.68-9.456-10.688-2.672c-7.019-1.794-12.126-8.060-12.128-15.52v0-64c0.002-7.46 5.109-13.726 12.017-15.496l0.111-0.024 10.688-2.672-5.68-9.456c-1.428-2.347-2.273-5.185-2.273-8.22 0-4.42 1.792-8.421 4.689-11.316l45.264-45.264c2.896-2.897 6.897-4.689 11.316-4.689 3.035 0 5.873 0.845 8.291 2.313l-0.071-0.040zM418.992 222.608l10.368 17.248c1.434 2.351 2.283 5.195 2.283 8.237 0 7.46-5.105 13.727-12.012 15.499l-0.111 0.024-19.52 4.8v39.088l19.52 4.8c7.018 1.796 12.123 8.063 12.123 15.523 0 3.042-0.849 5.886-2.323 8.308l0.040-0.071-10.368 17.248 27.616 27.6 17.248-10.352c2.351-1.434 5.195-2.283 8.237-2.283 7.46 0 13.727 5.105 15.499 12.012l0.024 0.111 4.8 19.52h39.008l4.8-19.52c1.796-7.018 8.063-12.123 15.523-12.123 3.042 0 5.886 0.849 8.308 2.323l-0.071-0.040 17.248 10.352 27.6-27.6-10.352-17.248c-1.434-2.351-2.283-5.195-2.283-8.237 0-7.46 5.105-13.727 12.012-15.499l0.111-0.024 19.52-4.8v-39.008l-19.52-4.8c-7.018-1.796-12.123-8.063-12.123-15.523 0-3.042 0.849-5.886 2.323-8.308l-0.040 0.071 10.352-17.248-27.6-27.616-17.248 10.368c-2.351 1.434-5.195 2.283-8.237 2.283-7.46 0-13.727-5.105-15.499-12.012l-0.024-0.111-4.8-19.52h-38.928l-4.8 19.52c-1.796 7.018-8.063 12.123-15.523 12.123-3.042 0-5.886-0.849-8.308-2.323l0.071 0.040-17.248-10.368zM688 304h32v-32h-32v32zM864 352v128c-0.055 44.161-35.839 79.945-79.995 80h-32.005v-32h32c26.51 0 48-21.49 48-48v0-128c0-26.51-21.49-48-48-48v0h-32v-32h32c44.161 0.055 79.945 35.839 80 79.995v0.005zM304 304h32v-32h-32v32zM160 480v-128c0.055-44.161 35.839-79.945 79.995-80h32.005v32h-32c-26.51 0-48 21.49-48 48v0 128c0 26.51 21.49 48 48 48v0h32v32h-32c-44.161-0.055-79.945-35.839-80-79.995v-0.005zM988.16 90.4c-2.966 3.419-7.309 5.575-12.156 5.6h-16.004v528c-0.082 26.477-21.523 47.918-47.992 48h-160.808c0.32 5.28 0.8 10.56 0.8 16 0 132.548-107.452 240-240 240s-240-107.452-240-240v0c0-5.44 0.48-10.72 0.8-16h-160.8c-26.477-0.082-47.918-21.523-48-47.992v-528.008h-16c-0.014 0-0.030 0-0.046 0-8.837 0-16-7.163-16-16 0-0.904 0.075-1.79 0.219-2.654l-0.013 0.094 16-96c1.277-7.667 7.861-13.44 15.794-13.44 0.016 0 0.032 0 0.049 0h895.997c0.014 0 0.030 0 0.046 0 7.933 0 14.517 5.773 15.781 13.347l0.013 0.093 16 96c0.127 0.756 0.199 1.628 0.199 2.516 0 4.001-1.469 7.659-3.896 10.464l0.017-0.020zM719.2 704h-32c-2.061 21.275-7.57 40.796-15.978 58.684l0.458-1.084 27.68 16.16c10.561-21.505 17.647-46.564 19.792-73.020l0.048-0.74zM671.68 614.4c7.95 16.803 13.459 36.324 15.463 56.872l0.057 0.728h32c-2.193-27.196-9.279-52.255-20.383-74.992l0.543 1.232zM683.52 570.56c-14.827-21.309-32.771-39.253-53.389-53.624l-0.691-0.456-16 27.84c16.427 11.843 30.397 25.813 41.871 41.704l0.369 0.536zM629.44 859.52c21.309-14.827 39.253-32.771 53.624-53.389l0.456-0.691-27.84-16c-11.843 16.427-25.813 30.397-41.704 41.871l-0.536 0.369zM528 895.2c27.196-2.193 52.255-9.279 74.992-20.383l-1.232 0.543-16.16-27.68c-16.803 7.95-36.324 13.459-56.872 15.463l-0.728 0.057zM656 688c0-79.529-64.471-144-144-144s-144 64.471-144 144c0 79.529 64.471 144 144 144v0c79.478-0.127 143.873-64.522 144-143.988v-0.012zM601.76 500.64c-21.505-10.561-46.564-17.647-73.020-19.792l-0.74-0.048v32c21.275 2.061 40.796 7.57 58.684 15.978l-1.084-0.458zM496 512.8v-32c-27.196 2.193-52.255 9.279-74.992 20.383l1.232-0.543 16.16 27.68c16.803-7.95 36.324-13.459 56.872-15.463l0.728-0.057zM410.56 544.32l-16-27.84c-21.309 14.827-39.253 32.771-53.624 53.389l-0.456 0.691 27.84 16c11.843-16.427 25.813-30.397 41.704-41.871l0.536-0.369zM496 895.2v-32c-21.275-2.061-40.796-7.57-58.684-15.978l1.084 0.458-16.16 27.68c21.505 10.561 46.564 17.647 73.020 19.792l0.74 0.048zM394.56 859.52l16-27.84c-16.427-11.843-30.397-25.813-41.871-41.704l-0.369-0.536-27.84 16c14.827 21.309 32.771 39.253 53.389 53.624l0.691 0.456zM324.64 777.76l27.68-16.16c-7.95-16.803-13.459-36.324-15.463-56.872l-0.057-0.728h-32c2.193 27.196 9.279 52.255 20.383 74.992l-0.543-1.232zM336.8 672c2.061-21.275 7.57-40.796 15.978-58.684l-0.458 1.084-27.68-16.16c-10.561 21.505-17.647 46.564-19.792 73.020l-0.048 0.74zM96 624c0 8.837 7.163 16 16 16v0h164.8c23.016-110.449 119.556-192.241 235.2-192.241s212.183 81.791 234.927 190.681l0.273 1.56h164.8c8.837 0 16-7.163 16-16v0-528h-352c-8.837 0-16-7.163-16-16v0-16h-96v16c0 8.837-7.163 16-16 16v0h-352zM946.4 0h-868.8l-10.72 64h365.12v-16c0-8.837 7.163-16 16-16v0h128c8.837 0 16 7.163 16 16v0 16h365.12z" />
<glyph unicode="&#xe91b;" glyph-name="search" d="M450.948 960c-248.646 0-450.948-202.302-450.948-450.948 0-248.66 202.302-450.948 450.948-450.948 248.66 0 450.948 202.288 450.948 450.948 0 248.646-202.288 450.948-450.948 450.948zM450.948 141.354c-202.746 0-367.696 164.95-367.696 367.696s164.95 367.698 367.696 367.698 367.696-164.95 367.696-367.696-164.95-367.698-367.696-367.698zM1011.804 7.056l-238.656 238.656c-16.262 16.262-42.598 16.262-58.86 0-16.262-16.248-16.262-42.612 0-58.86l238.656-238.656c8.13-8.13 18.774-12.196 29.43-12.196 10.642 0 21.298 4.066 29.43 12.196 16.262 16.248 16.262 42.612 0 58.86z" />
<glyph unicode="&#xe91c;" glyph-name="send" d="M22.497 603.962l397.207-250.877 250.877-397.197c7.886-12.49 21.564-19.886 36.075-19.886 1.938 0 3.927 0.125 5.886 0.406 16.574 2.302 30.293 14.094 35.054 30.168l277.347 938.713c0.531 1.833 0.75 3.688 1.042 5.521 0.104 0.635 0.281 1.219 0.365 1.854 0.469 4.115 0.24 8.157-0.469 12.115-0.125 0.771-0.302 1.521-0.49 2.292-0.958 4.073-2.417 7.98-4.479 11.584-0.104 0.167-0.104 0.354-0.219 0.531-0.813 1.344-1.771 2.542-2.708 3.771-0.448 0.604-0.813 1.24-1.302 1.813-1.656 1.99-3.459 3.781-5.396 5.407-0.49 0.406-1.021 0.698-1.531 1.083-1.583 1.198-3.208 2.323-4.927 3.281-0.75 0.427-1.542 0.771-2.333 1.135-1.677 0.813-3.386 1.51-5.136 2.115-0.427 0.146-0.813 0.385-1.26 0.51-0.406 0.125-0.813 0.125-1.198 0.229-1.875 0.5-3.771 0.833-5.698 1.094-0.74 0.083-1.49 0.229-2.24 0.302-2.302 0.125-4.625 0.104-6.948-0.135-0.281-0.021-0.583 0-0.875-0.021-2.417-0.271-4.844-0.771-7.23-1.469l-938.713-277.347c-16.074-4.761-27.866-18.459-30.168-35.054-2.313-16.574 5.313-32.981 19.47-41.94zM835.193 828.931l-180.040-180.061c-16.667-16.667-16.667-43.679 0-60.336 16.636-16.667 43.69-16.667 60.336 0l180.061 180.061-203.125-687.502-187.509 296.869 82.567 82.567c16.657 16.657 16.657 43.669 0 60.336-16.647 16.657-43.7 16.657-60.336 0l-82.567-82.546-296.869 187.488z" />
<glyph unicode="&#xe91d;" glyph-name="sms" d="M504.422 891.733c-278.596 0-504.422-183.433-504.422-409.873 1.531-101.349 44.273-192.424 112.167-257.445l0.131-0.125c-23.145-73.268-60.151-136.372-108.285-189.153l0.355 0.395c-2.658-2.797-4.294-6.588-4.294-10.762 0-2.308 0.5-4.499 1.398-6.471l-0.040 0.098c2.388-5.62 7.862-9.49 14.24-9.49 0.058 0 0.116 0 0.173 0.001h-0.009c105.579 1.838 201.971 39.712 277.754 101.804l-0.796-0.633c62.64-24.206 135.123-38.23 210.882-38.23 0.262 0 0.523 0 0.785 0.001h-0.041c278.665 0 504.422 183.433 504.422 409.6s-225.758 410.283-504.422 410.283zM252.587 355.84h-24.030c-8.694 0.039-15.731 7.076-15.77 15.766v31.407c0.039 8.694 7.076 15.731 15.766 15.77h24.034c11.81 0 20.48 6.827 20.48 13.039-0.263 3.083-1.829 5.754-4.137 7.49l-0.027 0.019-43.145 37.069c-15.92 13.329-26.026 33.148-26.214 55.332v0.032c2.193 42.505 37.191 76.139 80.045 76.139 1.332 0 2.656-0.032 3.972-0.097l-0.185 0.007h23.825c8.694-0.039 15.731-7.076 15.77-15.766v-31.407c-0.039-8.694-7.076-15.731-15.766-15.77h-24.034c-11.81 0-20.48-6.827-20.48-13.039 0.263-3.083 1.829-5.754 4.137-7.49l0.027-0.019 43.145-37.069c15.92-13.329 26.026-33.148 26.214-55.332v-0.032c-2.123-42.489-37.090-76.135-79.915-76.135-1.306 0-2.604 0.031-3.894 0.093l0.182-0.007zM630.579 371.541c-0.039-8.694-7.076-15.731-15.766-15.77h-31.543c-8.694 0.039-15.731 7.076-15.77 15.766v134.489l-48.674-110.046c-2.65-5.201-7.965-8.702-14.097-8.702s-11.448 3.501-14.056 8.613l-0.041 0.089-49.22 110.046v-134.485c-0.039-8.694-7.076-15.731-15.766-15.77h-31.543c-8.694 0.039-15.731 7.076-15.77 15.766v204.804c0 0.001 0 0.001 0 0.002 0 17.336 13.957 31.413 31.248 31.605h31.557c0.035 0 0.075 0 0.116 0 12.217 0 22.804-6.976 27.996-17.162l0.082-0.178 34.884-69.769 35.089 69.769c5.327 10.366 15.946 17.336 28.194 17.34h31.54c17.403-0.039 31.5-14.136 31.539-31.535v-0.004zM725.743 355.772h-24.235c-8.694 0.039-15.731 7.076-15.77 15.766v31.475c0.039 8.694 7.076 15.731 15.766 15.77h24.239c11.81 0 20.48 6.827 20.48 13.039-0.263 3.083-1.829 5.754-4.137 7.49l-0.027 0.019-43.145 37.069c-15.92 13.329-26.026 33.148-26.214 55.332v0.032c2.2 42.499 37.195 76.126 80.044 76.126 1.236 0 2.465-0.028 3.688-0.083l-0.173 0.006h24.030c8.694-0.039 15.731-7.076 15.77-15.766v-31.407c-0.039-8.694-7.076-15.731-15.766-15.77h-24.239c-11.81 0-20.48-6.827-20.48-13.039 0.263-3.083 1.829-5.754 4.137-7.49l0.027-0.019 43.145-37.069c15.92-13.329 26.026-33.148 26.214-55.332v-0.032c-2.017-42.466-36.936-76.132-79.719-76.132-1.278 0-2.55 0.030-3.813 0.089l0.179-0.007z" />
<glyph unicode="&#xe91e;" glyph-name="sun" d="M693.503 629.503c-46.053 46.053-111.069 75.852-181.503 75.852s-135.45-28.444-181.503-75.852c-46.053-46.053-75.852-111.069-75.852-181.503s29.799-135.45 75.852-181.503c46.053-46.053 111.069-75.852 181.503-75.852s135.45 28.444 181.503 75.852c46.053 46.053 75.852 111.069 75.852 181.503s-28.444 135.45-75.852 181.503zM512 785.27c18.963 0 35.217 16.254 35.217 35.217v104.296c0 18.963-16.254 35.217-35.217 35.217s-35.217-16.254-35.217-35.217v-104.296c0-18.963 16.254-35.217 35.217-35.217zM800.508 686.392l74.497 74.497c13.545 13.545 13.545 35.217 0 48.762s-35.217 13.545-48.762 0l-74.497-74.497c-13.545-13.545-13.545-35.217 0-48.762 12.19-13.545 33.862-13.545 48.762 0zM988.783 483.217h-104.296c-18.963 0-35.217-16.254-35.217-35.217s16.254-35.217 35.217-35.217h104.296c18.963 0 35.217 16.254 35.217 35.217s-16.254 35.217-35.217 35.217zM799.153 209.608c-13.545 13.545-35.217 13.545-48.762 0s-13.545-35.217 0-48.762l74.497-74.497c13.545-13.545 35.217-13.545 48.762 0s13.545 35.217 0 48.762l-74.497 74.497zM512 110.73c-18.963 0-35.217-16.254-35.217-35.217v-104.296c0-18.963 16.254-35.217 35.217-35.217s35.217 16.254 35.217 35.217v104.296c0 18.963-16.254 35.217-35.217 35.217zM223.492 209.608l-74.497-74.497c-13.545-13.545-13.545-35.217 0-48.762s35.217-13.545 48.762 0l74.497 74.497c13.545 13.545 13.545 35.217 0 48.762-12.19 13.545-33.862 13.545-48.762 0zM174.73 448c0 18.963-16.254 35.217-35.217 35.217h-104.296c-18.963 0-35.217-16.254-35.217-35.217s16.254-35.217 35.217-35.217h104.296c18.963 0 35.217 16.254 35.217 35.217zM223.492 686.392c13.545-13.545 35.217-13.545 48.762 0s13.545 35.217 0 48.762l-74.497 74.497c-13.545 13.545-35.217 13.545-48.762 0s-13.545-35.217 0-48.762l74.497-74.497z" />
<glyph unicode="&#xe91f;" glyph-name="trash" d="M176.791 58.639c0.171-62.174 50.526-112.529 112.684-112.7h450.696c62.174 0.171 112.529 50.526 112.7 112.684v676.037h-676.081zM909.192 903.68h-197.21l-56.32 56.32h-281.66l-56.32-56.32h-197.21v-112.7h788.721z" />
<glyph unicode="&#xe920;" glyph-name="upload" d="M876.089 491.198c6.605 16.675 10.435 35.993 10.435 56.206 0 86.461-70.070 156.556-156.521 156.596h-0.004c-32.403-0.011-62.488-9.931-87.389-26.895l0.539 0.347c-45.886 78.638-129.852 130.639-225.963 130.639-143.918 0-260.602-116.599-260.741-260.484v-0.013c0-4.399 0-8.799 0.341-13.198-92.265-33.011-157.093-119.679-157.093-221.488 0-129.613 105.072-234.686 234.686-234.686 0.095 0 0.189 0 0.284 0h599.708c115.054 0.197 208.247 93.511 208.247 208.592 0 100.311-70.806 184.084-165.165 204.066l-1.363 0.242zM640.948 391.149h-106.572v-182.5c-0.043-14.373-11.683-26.012-26.051-26.055h-78.169c-14.373 0.043-26.012 11.683-26.055 26.051v182.504h-106.572c-0.021 0-0.046 0-0.071 0-14.369 0-26.017 11.648-26.017 26.017 0 7.221 2.942 13.755 7.692 18.468l171.731 171.731c4.726 4.681 11.232 7.574 18.413 7.574s13.687-2.893 18.415-7.576l171.727-171.727c4.72-4.716 7.64-11.233 7.64-18.432 0-14.382-11.653-26.043-26.033-26.055h-0.001z" />
<glyph unicode="&#xe921;" glyph-name="upload2" d="M460.8 26.605v297.263l-66.825-66.37c-9.084-9.14-21.664-14.797-35.565-14.797-14.547 0-27.647 6.195-36.806 16.091l-0.030 0.033c-8.912 9.565-14.383 22.44-14.383 36.592 0 14.787 5.972 28.18 15.636 37.896l-0.002-0.002 153.6 152.614c9.103 9.081 21.667 14.697 35.543 14.697 14.231 0 27.082-5.906 36.236-15.402l0.015-0.015 153.6-157.999c9.307-9.633 15.042-22.768 15.042-37.243s-5.735-27.611-15.057-37.259l0.015 0.015c-9.137-9.538-21.976-15.465-36.2-15.465s-27.064 5.928-36.183 15.447l-0.017 0.018-66.219 68.267v-294.267c0-28.277-22.923-51.2-51.2-51.2s-51.2 22.923-51.2 51.2v0zM64.057 273.541c-39.818 46.397-64.058 107.176-64.058 173.615 0 0.297 0 0.593 0.001 0.89v-0.046c-0.007 0.733-0.012 1.599-0.012 2.466 0 130.327 95.27 238.402 219.966 258.381l1.495 0.198c41.317 123.724 155.485 211.592 290.38 213.028l0.171 0.001c135.085-1.409 249.277-89.288 289.956-210.85l0.633-2.18c126.156-20.091 221.425-128.109 221.425-258.378 0-0.937-0.005-1.873-0.015-2.808l0.001 0.142c0.001-0.243 0.001-0.531 0.001-0.818 0-66.442-24.224-127.226-64.322-174.002l0.302 0.361c-9.283-10.897-23.017-17.762-38.354-17.762-13.095 0-25.022 5.005-33.97 13.207l0.037-0.034c-10.637 9.873-17.272 23.931-17.272 39.539 0 13.352 4.855 25.569 12.897 34.984l-0.062-0.074c23.836 27.823 38.344 64.25 38.344 104.066 0 0.188 0 0.376-0.001 0.563v-0.029c0.008 0.592 0.013 1.291 0.013 1.991 0 85.322-68.486 154.649-153.485 156.007l-0.128 0.002h-5.12c-24.974 0.299-45.661 18.289-50.126 42.005l-0.050 0.321c-17.43 96.318-100.637 168.418-200.685 168.418s-183.255-72.1-200.498-167.175l-0.187-1.243c-4.546-24.034-25.235-42.014-50.181-42.325h-5.115c-85.147-1.36-153.65-70.703-153.65-156.046 0-0.687 0.004-1.372 0.013-2.057l-0.001 0.104c0-0.14-0.001-0.306-0.001-0.472 0-39.811 14.539-76.227 38.598-104.227l-0.178 0.212c7.959-9.334 12.801-21.536 12.801-34.87 0-15.628-6.652-29.703-17.279-39.546l-0.035-0.032c-8.907-8.216-20.853-13.254-33.976-13.254-15.306 0-29.011 6.853-38.214 17.658l-0.059 0.071z" />
<glyph unicode="&#xe922;" glyph-name="user" d="M508.289 408.24c1.060 0 2.121 0 3.393 0 0.424 0 0.848 0 1.272 0 0.636 0 1.484 0 2.121 0 62.131 1.060 112.388 22.902 149.497 64.676 81.64 92.031 68.069 249.797 66.584 264.853-5.301 113.024-58.738 167.097-102.845 192.331-32.868 18.873-71.25 29.051-114.084 29.899h-1.484c-0.212 0-0.636 0-0.848 0h-1.272c-23.538 0-69.765-3.817-114.084-29.051-44.531-25.234-98.816-79.308-104.118-193.18-1.484-15.056-15.056-172.823 66.584-264.853 36.897-41.774 87.153-63.616 149.285-64.676zM349.038 732.468c0 0.636 0.212 1.272 0.212 1.696 6.998 152.041 114.932 168.369 161.16 168.369h0.848c0.424 0 1.060 0 1.696 0 57.254-1.272 154.586-24.598 161.16-168.369 0-0.636 0-1.272 0.212-1.696 0.212-1.484 15.056-145.68-52.377-221.595-26.719-30.111-62.343-44.955-109.207-45.379-0.424 0-0.636 0-1.060 0v0c-0.424 0-0.636 0-1.060 0-46.651 0.424-82.488 15.268-108.995 45.379-67.221 75.491-52.801 220.322-52.589 221.595zM947.449 146.568c0 0.212 0 0.424 0 0.636 0 1.696-0.212 3.393-0.212 5.301-1.272 41.986-4.029 140.166-96.060 171.55-0.636 0.212-1.484 0.424-2.121 0.636-95.636 24.386-175.155 79.52-176.003 80.156-12.935 9.118-30.748 5.937-39.866-6.998s-5.937-30.748 6.998-39.866c3.605-2.545 88.002-61.283 193.604-88.426 49.408-17.6 54.922-70.401 56.406-118.749 0-1.908 0-3.605 0.212-5.301 0.212-19.085-1.060-48.56-4.453-65.524-34.352-19.509-169.006-86.941-373.848-86.941-203.994 0-339.496 67.645-374.060 87.153-3.393 16.964-4.877 46.439-4.453 65.524 0 1.696 0.212 3.393 0.212 5.301 1.484 48.348 6.998 101.149 56.406 118.749 105.602 27.143 189.999 86.093 193.604 88.426 12.935 9.118 16.116 26.931 6.998 39.866s-26.931 16.116-39.866 6.998c-0.848-0.636-79.944-55.77-176.003-80.156-0.848-0.212-1.484-0.424-2.121-0.636-92.031-31.596-94.787-129.776-96.060-171.55 0-1.908 0-3.605-0.212-5.301 0-0.212 0-0.424 0-0.636-0.212-11.027-0.424-67.645 10.815-96.060 2.121-5.513 5.937-10.179 11.027-13.359 6.362-4.241 158.827-101.361 413.926-101.361s407.564 97.332 413.926 101.361c4.877 3.181 8.906 7.846 11.027 13.359 10.603 28.203 10.391 84.821 10.179 95.848z" />
<glyph unicode="&#xe923;" glyph-name="user-profile" d="M512 960c-282.317 0-512-229.683-512-512 0-123.648 44.066-237.193 117.316-325.769 0.188-0.256 0.205-0.58 0.41-0.819 52.89-63.778 119.313-112.674 193.331-144.265 0.853-0.358 1.69-0.751 2.543-1.109 5.99-2.526 12.049-4.864 18.125-7.151 2.389-0.905 4.779-1.826 7.202-2.697 5.239-1.877 10.513-3.652 15.821-5.359 3.396-1.092 6.793-2.167 10.223-3.191 4.693-1.399 9.404-2.748 14.148-4.028 4.164-1.126 8.363-2.167 12.561-3.174 4.25-1.024 8.516-2.048 12.8-2.953 4.779-1.024 9.609-1.929 14.455-2.816 3.891-0.717 7.765-1.468 11.691-2.099 5.376-0.87 10.786-1.553 16.213-2.253 3.499-0.444 6.98-0.956 10.496-1.331 6.144-0.649 12.339-1.109 18.551-1.536 2.884-0.205 5.751-0.512 8.653-0.666 9.062-0.512 18.227-0.785 27.46-0.785s18.398 0.273 27.494 0.751c2.901 0.154 5.769 0.461 8.653 0.666 6.212 0.444 12.407 0.887 18.551 1.536 3.516 0.375 6.997 0.887 10.496 1.331 5.427 0.7 10.837 1.382 16.213 2.253 3.908 0.631 7.799 1.382 11.691 2.099 4.83 0.887 9.66 1.792 14.455 2.816 4.284 0.922 8.533 1.929 12.8 2.953 4.198 1.024 8.397 2.065 12.561 3.174 4.745 1.263 9.455 2.628 14.148 4.028 3.43 1.024 6.827 2.099 10.223 3.191 5.308 1.707 10.581 3.482 15.821 5.359 2.406 0.87 4.796 1.792 7.202 2.697 6.093 2.287 12.134 4.642 18.125 7.151 0.853 0.358 1.69 0.751 2.543 1.109 74.001 31.59 140.442 80.486 193.331 144.265 0.205 0.239 0.222 0.58 0.41 0.819 73.216 88.61 117.282 202.155 117.282 325.803 0 282.317-229.683 512-512 512zM719.479 17.579c-0.256-0.119-0.495-0.256-0.751-0.375-6.093-2.935-12.288-5.7-18.534-8.397-1.417-0.597-2.816-1.212-4.233-1.809-5.461-2.287-10.991-4.454-16.555-6.537-2.321-0.87-4.642-1.724-6.98-2.543-4.932-1.758-9.882-3.447-14.882-5.052-3.106-0.99-6.229-1.929-9.353-2.85-4.437-1.331-8.892-2.611-13.397-3.806-3.789-1.007-7.612-1.929-11.435-2.833-4.011-0.956-8.004-1.929-12.049-2.782-4.42-0.939-8.875-1.741-13.312-2.543-3.601-0.666-7.185-1.365-10.82-1.946-5.001-0.785-10.052-1.417-15.087-2.048-3.191-0.41-6.366-0.887-9.591-1.229-5.751-0.614-11.554-1.007-17.34-1.417-2.577-0.171-5.137-0.461-7.748-0.597-8.448-0.444-16.913-0.683-25.412-0.683s-16.964 0.239-25.395 0.683c-2.594 0.137-5.154 0.41-7.748 0.597-5.803 0.393-11.588 0.802-17.34 1.417-3.226 0.341-6.4 0.819-9.591 1.229-5.035 0.631-10.086 1.263-15.087 2.048-3.635 0.58-7.219 1.28-10.82 1.946-4.454 0.802-8.909 1.621-13.312 2.543-4.045 0.853-8.055 1.826-12.049 2.782-3.823 0.922-7.646 1.826-11.435 2.833-4.489 1.195-8.96 2.492-13.397 3.806-3.123 0.922-6.246 1.86-9.353 2.85-5.001 1.604-9.967 3.294-14.882 5.052-2.338 0.836-4.659 1.69-6.98 2.543-5.564 2.082-11.093 4.25-16.555 6.537-1.417 0.58-2.799 1.195-4.215 1.792-6.246 2.679-12.442 5.461-18.551 8.397-0.256 0.119-0.495 0.239-0.751 0.375-59.546 28.809-112.145 69.7-154.829 119.364 32.99 121.481 126.379 219.409 246.528 258.372 2.372-1.451 4.847-2.748 7.287-4.113 1.434-0.802 2.85-1.655 4.301-2.423 5.086-2.697 10.24-5.222 15.514-7.492 4.045-1.775 8.226-3.277 12.39-4.813 0.819-0.29 1.638-0.614 2.458-0.905 23.142-8.192 47.906-12.885 73.813-12.885s50.671 4.693 73.796 12.885c0.819 0.29 1.638 0.614 2.458 0.905 4.164 1.536 8.346 3.038 12.39 4.813 5.274 2.27 10.428 4.796 15.514 7.492 1.451 0.785 2.867 1.621 4.301 2.423 2.441 1.365 4.932 2.662 7.322 4.13 120.149-38.98 213.521-136.909 246.528-258.372-42.684-49.647-95.283-90.539-154.829-119.364zM324.267 584.533c0 103.509 84.224 187.733 187.733 187.733s187.733-84.224 187.733-187.733c0-65.843-34.15-123.785-85.606-157.303-6.724-4.369-13.722-8.277-20.907-11.691-0.853-0.41-1.69-0.836-2.543-1.229-49.425-22.477-107.93-22.477-157.355 0-0.853 0.393-1.707 0.819-2.543 1.229-7.202 3.413-14.182 7.322-20.907 11.691-51.456 33.519-85.606 91.46-85.606 157.303zM899.908 169.421c-38.69 114.244-126.959 206.575-239.735 250.436 45.107 40.636 73.694 99.311 73.694 164.676 0 122.334-99.533 221.867-221.867 221.867s-221.867-99.533-221.867-221.867c0-65.365 28.587-124.041 73.711-164.676-112.777-43.878-201.045-136.192-239.735-250.436-56.542 78.49-89.975 174.677-89.975 278.579 0 263.492 214.374 477.867 477.867 477.867s477.867-214.374 477.867-477.867c0-103.902-33.434-200.090-89.958-278.579z" />
</font>
</defs>
</svg>
