<svg data-name="graphic / upload document (dark)" xmlns="http://www.w3.org/2000/svg" width="187.268" height="219.457"><path d="M124.751 0H4.234A4.241 4.241 0 000 4.238v162.981a4.241 4.241 0 004.234 4.238h120.517a4.241 4.241 0 004.234-4.238V4.238A4.241 4.241 0 00124.751 0z" fill="#2e3a59"/><path data-name="Path" d="M7.644 4.719a2.962 2.962 0 00-2.925 2.992v154.462a2.962 2.962 0 002.925 2.992h113.7a2.962 2.962 0 002.925-2.992V7.711a2.962 2.962 0 00-2.927-2.992z" fill="#222b45"/><path data-name="Path" d="M14.542 12.584a2.067 2.067 0 00-1.958 2.157v20.854a2.067 2.067 0 001.958 2.157h101.475a2.067 2.067 0 001.958-2.157V14.741a2.067 2.067 0 00-1.958-2.157zM14.542 48.763a2 2 0 00-1.958 2.041v46.259a2 2 0 001.958 2.041h101.475a2 2 0 001.958-2.041V50.804a2 2 0 00-1.958-2.041z" fill="#2e3a59"/><path fill="#57627b" d="M25.168 17.303h80.223v4.719H25.168z"/><path data-name="Rectangle" fill="#57627b" d="M25.168 26.426h80.223v1.573H25.168zM25.168 31.46h80.223v1.573H25.168z"/><path data-name="Path" d="M72.107 99.099h36.818a1.185 1.185 0 001.095-.749 1.234 1.234 0 00-.257-1.322L86.199 72.914a1.167 1.167 0 00-1.676 0l-5.86 6a2.446 2.446 0 01-3.516 0L56.794 60.129a1.168 1.168 0 00-1.676 0L19.223 96.862a1.234 1.234 0 00-.257 1.322 1.185 1.185 0 001.095.749h52.093z" fill="#57627b"/><circle cx="4.719" cy="4.719" r="4.719" transform="translate(23.595 55.055)" fill="#57627b"/><path data-name="Path" d="M14.542 108.537a2 2 0 00-1.958 2.041v46.259a2 2 0 001.958 2.041h101.475a2 2 0 001.958-2.041v-46.259a2 2 0 00-1.958-2.041z" fill="#2e3a59"/><path data-name="Path" d="M72.107 158.873h36.818a1.185 1.185 0 001.095-.749 1.234 1.234 0 00-.257-1.322l-23.564-24.114a1.168 1.168 0 00-1.676 0l-5.86 6a2.445 2.445 0 01-3.516 0l-18.353-18.786a1.168 1.168 0 00-1.676 0l-35.895 36.734a1.234 1.234 0 00-.257 1.322 1.185 1.185 0 001.095.749h52.093z" fill="#57627b"/><circle data-name="Oval" cx="4.719" cy="4.719" r="4.719" transform="translate(23.595 114.829)" fill="#57627b"/><path data-name="Path" d="M47.036 37.752a2.989 2.989 0 00-2.992 2.979v165.5a2.989 2.989 0 002.992 2.979h123a2.989 2.989 0 002.992-2.979v-165.5a2.989 2.989 0 00-2.99-2.979z" fill="#2e3a59"/><path data-name="Path" d="M51.688 42.471a2.978 2.978 0 00-2.925 3.021v155.979a2.978 2.978 0 002.925 3.021h113.7a2.978 2.978 0 002.923-3.021V45.492a2.978 2.978 0 00-2.925-3.021z" fill="#222b45"/><path data-name="Path" d="M67.381 64.493a1.26 1.26 0 00-1.315 1.194v5.477a1.26 1.26 0 001.315 1.194h77.593a1.26 1.26 0 001.315-1.194v-5.477a1.26 1.26 0 00-1.315-1.194z" fill="#2ac0eb"/><path data-name="Path" d="M67.964 84.942a.335.335 0 00-.325.343v2.457a.335.335 0 00.325.343h78a.335.335 0 00.325-.343v-2.457a.335.335 0 00-.325-.343zM67.964 92.807a.335.335 0 00-.325.343v2.457a.335.335 0 00.325.343h78a.335.335 0 00.325-.343V93.15a.335.335 0 00-.325-.343zM67.964 100.672a.335.335 0 00-.325.343v2.457a.335.335 0 00.325.343h78a.335.335 0 00.325-.343v-2.457a.335.335 0 00-.325-.343zM67.964 114.829a.335.335 0 00-.325.343v2.457a.335.335 0 00.325.343h78a.335.335 0 00.325-.343v-2.457a.335.335 0 00-.325-.343zM67.964 122.694a.335.335 0 00-.325.343v2.457a.335.335 0 00.325.343h78a.335.335 0 00.325-.343v-2.457a.335.335 0 00-.325-.343zM67.964 130.559a.335.335 0 00-.325.343v2.457a.335.335 0 00.325.343h78a.335.335 0 00.325-.343v-2.457a.335.335 0 00-.325-.343zM67.964 138.424a.335.335 0 00-.325.343v2.457a.335.335 0 00.325.343h78a.335.335 0 00.325-.343v-2.457a.335.335 0 00-.325-.343zM67.964 146.289a.335.335 0 00-.325.343v2.457a.335.335 0 00.325.343h78a.335.335 0 00.325-.343v-2.457a.335.335 0 00-.325-.343zM67.964 154.154a.335.335 0 00-.325.343v2.457a.335.335 0 00.325.343h78a.335.335 0 00.325-.343v-2.457a.335.335 0 00-.325-.343zM67.964 162.019a.335.335 0 00-.325.343v2.457a.335.335 0 00.325.343h78a.335.335 0 00.325-.343v-2.457a.335.335 0 00-.325-.343zM67.964 169.884a.335.335 0 00-.325.343v2.457a.335.335 0 00.325.343h78a.335.335 0 00.325-.343v-2.457a.335.335 0 00-.325-.343zM67.964 177.749a.335.335 0 00-.325.343v2.457a.335.335 0 00.325.343h78a.335.335 0 00.325-.343v-2.457a.335.335 0 00-.325-.343z" fill="#57627b"/><circle data-name="Oval" cx="23" cy="23" r="23" transform="translate(141.268 173.457)" fill="#8bdd28"/><path data-name="Path" d="M159.294 206.378l-8.286-9.241 4.818-3.251 3.923 4.375 13.651-12.647 4.034 4.154-18.14 16.61z" fill="#fff"/></svg>