<svg xmlns="http://www.w3.org/2000/svg" width="471.91" height="474.799"><g data-name="Group 1617" fill="none"><g data-name="Path 11895" opacity=".57"><path d="M168.82 77.52c81.1-27.926 172.765 24.706 204.736 117.557s-7.857 190.759-88.96 218.685S111.83 389.056 79.86 296.205s7.858-190.76 88.96-218.685z"/><path d="M169.145 78.465a136.41 136.41 0 00-28.212 13.507c-8.606 5.416-16.687 11.86-24.02 19.15-7.201 7.162-13.754 15.212-19.476 23.93-5.67 8.637-10.573 18.004-14.574 27.84-4.002 9.84-7.135 20.228-9.31 30.88-2.198 10.755-3.438 21.872-3.687 33.041a195.142 195.142 0 002.298 34.328 203.211 203.211 0 008.64 34.738 203.211 203.211 0 0014.579 32.694 195.142 195.142 0 0019.323 28.465c7.073 8.649 14.895 16.645 23.248 23.768 8.271 7.054 17.136 13.312 26.348 18.6 9.208 5.288 18.839 9.65 28.624 12.967 9.876 3.346 19.997 5.656 30.08 6.865 10.267 1.232 20.602 1.333 30.718.303a136.41 136.41 0 0058.759-20.232c8.605-5.416 16.687-11.86 24.02-19.15 7.2-7.161 13.754-15.212 19.475-23.93 5.67-8.637 10.573-18.004 14.575-27.84 4.002-9.84 7.135-20.228 9.31-30.88 2.197-10.755 3.437-21.871 3.686-33.041a195.142 195.142 0 00-2.297-34.328 203.211 203.211 0 00-8.641-34.738 203.211 203.211 0 00-14.578-32.693 195.142 195.142 0 00-19.324-28.466c-7.072-8.648-14.894-16.645-23.247-23.768-8.272-7.053-17.136-13.312-26.348-18.6-9.209-5.288-18.84-9.65-28.625-12.966-9.876-3.347-19.996-5.657-30.08-6.866-10.266-1.231-20.601-1.333-30.717-.303a136.41 136.41 0 00-30.547 6.725m-.326-.945c81.102-27.926 172.766 24.706 204.737 117.557 31.971 92.85-7.857 190.759-88.96 218.684-81.102 27.926-172.766-24.706-204.737-117.556-31.97-92.85 7.858-190.76 88.96-218.685z" fill="#8bdd28"/></g><g data-name="Path 11896" opacity=".57"><path d="M126.525 100.729c64.245-61.026 165.32-49.308 225.757 26.174s57.35 186.142-6.896 247.168-165.32 49.306-225.757-26.175-57.35-186.142 6.896-247.167z"/><path d="M132.055 97.053c-1.633 1.42-3.262 2.9-4.842 4.4a152.24 152.24 0 00-21.081 24.883c-5.994 8.834-11.163 18.433-15.364 28.528-4.126 9.914-7.36 20.409-9.615 31.19-2.232 10.683-3.522 21.74-3.832 32.866a195.253 195.253 0 001.98 33.547 198.244 198.244 0 0021.518 65.167 196.083 196.083 0 0019.59 29.637c7.61 9.505 16.05 18.2 25.082 25.842 8.796 7.442 18.253 13.97 28.106 19.402 9.673 5.332 19.813 9.657 30.141 12.855 10.234 3.168 20.726 5.253 31.188 6.197 9.33.843 18.719.783 27.903-.178a139.25 139.25 0 0027.252-5.642 138.068 138.068 0 0025.907-11.185c8.42-4.71 16.45-10.367 23.867-16.816 1.633-1.42 3.262-2.9 4.842-4.4a152.241 152.241 0 0021.082-24.882c5.993-8.835 11.162-18.433 15.363-28.528 4.126-9.915 7.361-20.41 9.615-31.19 2.233-10.683 3.522-21.74 3.833-32.866a195.25 195.25 0 00-1.981-33.547 198.247 198.247 0 00-21.517-65.167 196.083 196.083 0 00-19.591-29.638c-7.61-9.505-16.05-18.199-25.082-25.841-8.796-7.442-18.252-13.97-28.106-19.403-9.672-5.332-19.813-9.657-30.14-12.854-10.234-3.168-20.727-5.254-31.188-6.198a144.22 144.22 0 00-27.903.178 139.25 139.25 0 00-27.253 5.642 138.065 138.065 0 00-25.907 11.186c-8.419 4.71-16.449 10.367-23.867 16.815m-.656-.755c64.391-55.974 161.95-42.997 220.883 30.605 60.436 75.481 57.349 186.142-6.896 247.168-1.6 1.52-3.23 3-4.875 4.43-64.39 55.974-161.95 42.997-220.882-30.605-60.437-75.48-57.35-186.142 6.896-247.167 1.6-1.52 3.23-3.001 4.874-4.43z" fill="#2ac0eb"/></g></g></svg>