<svg xmlns="http://www.w3.org/2000/svg" viewBox="0 0 14.78 16.299"><path data-name="Icon simple-email" d="M14.769 7.522a8.406 8.406 0 01-.271 1.823 5.276 5.276 0 01-.709 1.6 3.741 3.741 0 01-1.2 1.138 3.392 3.392 0 01-1.755.433 2.544 2.544 0 01-1.269-.311 2.173 2.173 0 01-.858-.879 2.718 2.718 0 01-2.3 1.155A2.338 2.338 0 014.399 11.4a3.534 3.534 0 01-.5-1.251 5.394 5.394 0 01-.065-1.632 7.579 7.579 0 01.5-2 5.431 5.431 0 01.919-1.531 3.886 3.886 0 011.263-.976 3.524 3.524 0 011.534-.335 4.776 4.776 0 01.919.078 3.76 3.76 0 01.713.214 3.855 3.855 0 01.591.312c.18.116.362.236.542.359l-.447 5.132a1.706 1.706 0 00.013.6.841.841 0 00.183.371.66.66 0 00.3.194 1.1 1.1 0 001.045-.206 2.227 2.227 0 00.56-.713 4.592 4.592 0 00.377-1.071 7.351 7.351 0 00.165-1.334 8.527 8.527 0 00-.21-2.493 4.956 4.956 0 00-.923-1.929 4.285 4.285 0 00-1.654-1.243 6 6 0 00-2.41-.441 5.321 5.321 0 00-2.384.52 5.468 5.468 0 00-1.811 1.44A6.911 6.911 0 002.43 5.631a9.762 9.762 0 00-.5 2.7 8.975 8.975 0 00.255 2.754 4.974 4.974 0 001.006 1.974 4.2 4.2 0 001.7 1.185 6.54 6.54 0 002.353.393 8.058 8.058 0 001.544-.166c.255-.051.5-.112.726-.179a5.465 5.465 0 00.625-.224l.323 1.452a3.584 3.584 0 01-.7.346 6.735 6.735 0 01-.827.239 8.07 8.07 0 01-1.727.194 9.058 9.058 0 01-3.149-.507 5.8 5.8 0 01-2.3-1.509A6.339 6.339 0 01.394 11.79a10.631 10.631 0 01-.385-3.46 10.551 10.551 0 01.662-3.32 8.217 8.217 0 011.595-2.638A7.268 7.268 0 014.699.631 7.618 7.618 0 017.85 0a7.953 7.953 0 013.053.547 5.939 5.939 0 012.2 1.538 6.311 6.311 0 011.308 2.376 9.085 9.085 0 01.358 3.061zm-8.747 1a3.465 3.465 0 00.179 1.718.921.921 0 00.886.581.979.979 0 00.3-.056 1.082 1.082 0 00.349-.21 1.864 1.864 0 00.354-.428 3.283 3.283 0 00.326-.723l.348-3.988a2.081 2.081 0 00-.534-.073 1.873 1.873 0 00-.9.207 1.784 1.784 0 00-.639.607 3.565 3.565 0 00-.424 1 8.467 8.467 0 00-.24 1.365z"/></svg>