<svg xmlns="http://www.w3.org/2000/svg" viewBox="0 0 17.716 17.626"><g data-name="edit (1)"><path data-name="Path 11897" d="M16.351 11.061a.441.441 0 00-.441.441v3.917a1.325 1.325 0 01-1.324 1.325H2.206A1.325 1.325 0 01.882 15.42V3.92a1.325 1.325 0 011.324-1.324h3.917a.441.441 0 100-.882H2.206A2.209 2.209 0 000 3.922v11.5a2.209 2.209 0 002.206 2.206h12.38a2.209 2.209 0 002.206-2.206v-3.92a.441.441 0 00-.441-.441zm0 0"/><path data-name="Path 11898" d="M16.617.581a1.985 1.985 0 00-2.808 0L5.938 8.452a.441.441 0 00-.113.194L4.79 12.383a.441.441 0 00.543.543l3.737-1.035a.441.441 0 00.194-.113l7.871-7.872a1.988 1.988 0 000-2.808zM6.899 8.739l6.442-6.442 2.078 2.078-6.442 6.442zm-.415.833l1.66 1.66-2.3.636zm10.027-6.289l-.468.468-2.078-2.078.468-.468a1.1 1.1 0 011.56 0l.518.518a1.1 1.1 0 010 1.56zm0 0"/></g></svg>