<svg xmlns="http://www.w3.org/2000/svg" viewBox="0 0 25.16 24.007"><path data-name="Path 36" d="M24.928 10.832L13.088.244a.332.332 0 00-.067-.052.7.7 0 00-.947-.016L.234 10.765a.7.7 0 00.931 1.045L3.3 9.9v12.348a1.761 1.761 0 001.759 1.759h3.734a1.652 1.652 0 001.651-1.648v-6.28a.254.254 0 01.254-.254h3.772a.254.254 0 01.254.254v6.28a1.652 1.652 0 001.651 1.651h3.735a2 2 0 001.759-2.2V9.968L24 11.877a.7.7 0 00.988-.057.712.712 0 00-.06-.988zm-4.461 3.452v7.509c0 .5-.248.807-.362.807h-3.736a.254.254 0 01-.254-.254v-6.267a1.652 1.652 0 00-1.651-1.651h-3.772a1.652 1.652 0 00-1.651 1.651v6.28a.254.254 0 01-.254.254H5.051a.363.363 0 01-.362-.362v-13.6l7.855-7.017 7.923 7.084v5.568z"/></svg>