<svg xmlns="http://www.w3.org/2000/svg" viewBox="0 0 16.09 21.453"><path data-name="Icon awesome-file-image" d="M16.09 5.109v.254h-5.363V0h.254a1.006 1.006 0 01.711.295l4.1 4.1a1.006 1.006 0 01.298.714zM10.391 6.7a1.009 1.009 0 01-1.005-1V0h-8.38A1.006 1.006 0 000 1.006v19.442a1.006 1.006 0 001.006 1.006h14.078a1.006 1.006 0 001.006-1.006V6.7zm-5.676.67A2.011 2.011 0 112.7 9.386a2.011 2.011 0 012.016-2.011zm8.715 10.056H2.7l.02-2.032 1.656-1.656a.479.479 0 01.691.02l1.656 1.656 4.337-4.337a.5.5 0 01.711 0l1.656 1.656z"/></svg>