<svg xmlns="http://www.w3.org/2000/svg" viewBox="0 0 14.779 14.778"><path data-name="Icon awesome-facebook-messenger" d="M7.405 0A7.14 7.14 0 000 7.168a7.006 7.006 0 002.326 5.3c.249.224.2.353.24 1.735a.594.594 0 00.831.524c1.577-.694 1.6-.749 1.864-.676 4.568 1.257 9.518-1.666 9.518-6.884A7.112 7.112 0 007.405 0zm4.447 5.516L9.677 8.959a1.114 1.114 0 01-1.606.3L6.337 7.96a.447.447 0 00-.536 0L3.469 9.731a.351.351 0 01-.51-.467l2.178-3.443a1.113 1.113 0 011.606-.3l1.73 1.295a.447.447 0 00.536 0l2.336-1.769a.35.35 0 01.509.465z"/></svg>