<svg xmlns="http://www.w3.org/2000/svg" viewBox="0 0 16.09 21.453"><path data-name="Icon awesome-file-pdf" d="M7.622 10.731a4.043 4.043 0 01-.084-1.965c.352 0 .318 1.546.084 1.965zm-.071 1.978a19.334 19.334 0 01-1.19 2.627A15.429 15.429 0 019 14.418a5.428 5.428 0 01-1.449-1.709zm-3.943 5.229c0 .034.553-.226 1.462-1.684a5.791 5.791 0 00-1.462 1.684zM10.391 6.7h5.7v13.748a1 1 0 01-1.006 1.006H1.006A1 1 0 010 20.448V1.006A1 1 0 011.006 0h8.38v5.7a1.009 1.009 0 001.005 1zm-.335 7.2a4.205 4.205 0 01-1.789-2.254 6.023 6.023 0 00.26-2.69 1.049 1.049 0 00-2-.285 6.967 6.967 0 00.336 3.229 39.346 39.346 0 01-1.71 3.6h-.008c-1.136.582-3.084 1.865-2.284 2.849a1.3 1.3 0 00.9.419c.75 0 1.5-.754 2.56-2.589a23.884 23.884 0 013.31-.972 6.35 6.35 0 002.682.817 1.085 1.085 0 00.827-1.824c-.582-.57-2.275-.406-3.084-.3zM15.8 4.4L11.69.293A1 1 0 0010.978 0h-.251v5.363h5.363v-.255a1 1 0 00-.29-.708zm-3.1 10.7c.172-.113-.1-.5-1.793-.377 1.546.659 1.785.377 1.785.377z"/></svg>