<svg xmlns="http://www.w3.org/2000/svg" viewBox="0 0 14.977 14.976"><path data-name="Icon ionic-ios-call" d="M14.545 11.726a12.58 12.58 0 00-2.628-1.758c-.788-.378-1.076-.37-1.634.031-.464.335-.764.647-1.3.53a7.745 7.745 0 01-2.608-1.93 7.69 7.69 0 01-1.93-2.608c-.113-.538.2-.834.53-1.3.4-.558.413-.846.031-1.634A12.331 12.331 0 003.249.431c-.573-.573-.7-.448-1.018-.335a5.791 5.791 0 00-.932.5A2.811 2.811 0 00.181 1.772c-.222.48-.48 1.372.83 3.7a20.668 20.668 0 003.634 4.846 20.749 20.749 0 004.846 3.634c2.332 1.31 3.224 1.053 3.7.83a2.763 2.763 0 001.181-1.119 5.791 5.791 0 00.5-.932c.121-.303.25-.434-.327-1.005z"/></svg>