<svg xmlns="http://www.w3.org/2000/svg" viewBox="0 0 64 64" width="512" height="512"><path d="M31 24h2v-2a2 2 0 002-2v-2a2 2 0 00-2-2h-2v-2h4v-2h-2v-2h-2v2a2 2 0 00-2 2v2a2 2 0 002 2h2v2h-4v2h2zM32 46a4 4 0 10-4-4 4 4 0 004 4zm0-6a2 2 0 11-2 2 2 2 0 012-2z"/><path d="M28.863 49.574l.167.668A1 1 0 0030 51h4a1 1 0 00.97-.758l.167-.668.591.355a1 1 0 001.221-.151l2.829-2.829a1 1 0 00.151-1.221l-.355-.591.668-.167A1 1 0 0041 44v-4a1 1 0 00-.758-.97l-.668-.167.355-.591a1 1 0 00-.151-1.221l-2.829-2.829a1 1 0 00-1.221-.151l-.591.355-.167-.668A1 1 0 0034 33h-4a1 1 0 00-.97.758l-.167.668-.591-.355a1 1 0 00-1.221.151l-2.829 2.829a1 1 0 00-.151 1.221l.355.591-.668.167A1 1 0 0023 40v4a1 1 0 00.758.97l.668.167-.355.591a1 1 0 00.151 1.221l2.829 2.829a1 1 0 001.221.151zm-2.676-3.487l.648-1.078a1 1 0 00-.615-1.485l-1.22-.3v-2.443l1.22-.3a1 1 0 00.615-1.485l-.648-1.078 1.726-1.725 1.078.647a1 1 0 001.485-.615l.3-1.22h2.438l.3 1.22a1 1 0 001.485.615l1.078-.647 1.725 1.725-.647 1.078a1 1 0 00.615 1.485l1.22.3v2.438l-1.22.3a1 1 0 00-.615 1.485l.647 1.078-1.725 1.726-1.078-.648a1 1 0 00-1.485.615l-.3 1.22h-2.433l-.3-1.22a1 1 0 00-1.485-.615l-1.078.648zM43 41h2v2h-2zM54 38v-8a5.006 5.006 0 00-5-5h-2v2h2a3 3 0 013 3v8a3 3 0 01-3 3h-2v2h2a5.006 5.006 0 005-5zM19 41h2v2h-2zM10 30v8a5.006 5.006 0 005 5h2v-2h-2a3 3 0 01-3-3v-8a3 3 0 013-3h2v-2h-2a5.006 5.006 0 00-5 5z"/><path d="M61.76 54.35A1.011 1.011 0 0061 54h-1V21a3.009 3.009 0 00-3-3H46.95c.02-.33.05-.66.05-1a15 15 0 00-30 0c0 .34.03.67.05 1H7a3.009 3.009 0 00-3 3v33H3a1 1 0 00-.99 1.16l1 6A1 1 0 004 62h56a1 1 0 00.99-.84l1-6a1 1 0 00-.23-.81zM44.95 16h-2a11.089 11.089 0 00-.97-3.6l1.73-1.01A13.022 13.022 0 0144.95 16zm-2.97 5.6a11.089 11.089 0 00.97-3.6h2a13.022 13.022 0 01-1.24 4.61zm.74 2.74a13.244 13.244 0 01-3.38 3.38l-1-1.74a11.406 11.406 0 002.64-2.64zM39.34 6.28a13.244 13.244 0 013.38 3.38l-1.74 1a11.406 11.406 0 00-2.64-2.64zM33 4.05a13.022 13.022 0 014.61 1.24L36.6 7.02a11.089 11.089 0 00-3.6-.97zM41 17a9 9 0 11-9-9 9.014 9.014 0 019 9zm-3.39 11.71A13.022 13.022 0 0133 29.95v-2a11.089 11.089 0 003.6-.97zM31 27.95v2a13.022 13.022 0 01-4.61-1.24l1.01-1.73a11.089 11.089 0 003.6.97zm-5.34-1.97l-1 1.74a13.244 13.244 0 01-3.38-3.38l1.74-1a11.406 11.406 0 002.64 2.64zM31 4.05v2a11.089 11.089 0 00-3.6.97l-1.01-1.73A13.022 13.022 0 0131 4.05zm-6.34 2.23l1 1.74a11.406 11.406 0 00-2.64 2.64l-1.74-1a13.244 13.244 0 013.38-3.38zm-4.37 5.11l1.73 1.01a11.089 11.089 0 00-.97 3.6h-2a13.022 13.022 0 011.24-4.61zm.76 6.61a11.089 11.089 0 00.97 3.6l-1.73 1.01A13.022 13.022 0 0119.05 18zM6 21a1 1 0 011-1h10.3a15 15 0 0029.4 0H57a1 1 0 011 1v33H36a1 1 0 00-1 1v1h-6v-1a1 1 0 00-1-1H6zm53.15 39H4.85l-.67-4H27v1a1 1 0 001 1h8a1 1 0 001-1v-1h22.82z"/></svg>