<svg height="383pt" viewBox="0 0 383 383.981" width="383pt" xmlns="http://www.w3.org/2000/svg"><path d="M7.945 133.508l148.946 94.074 94.074 148.941a15.997 15.997 0 0015.734 7.305 16.01 16.01 0 0013.145-11.312l104-352c.199-.688.281-1.383.39-2.07.04-.239.106-.458.137-.696.176-1.543.09-3.059-.176-4.543-.047-.289-.113-.57-.183-.86-.36-1.527-.907-2.992-1.68-4.343-.039-.063-.039-.133-.082-.2-.305-.503-.664-.952-1.016-1.413-.168-.227-.304-.465-.488-.68a16.003 16.003 0 00-2.023-2.027c-.184-.153-.383-.262-.575-.407a15.978 15.978 0 00-1.847-1.23c-.281-.16-.578-.29-.875-.426A17.508 17.508 0 00373.5.828c-.16-.055-.305-.144-.473-.191-.152-.047-.304-.047-.449-.086a17.185 17.185 0 00-2.137-.41c-.277-.032-.558-.086-.84-.114a16.604 16.604 0 00-2.605.051c-.105.008-.219 0-.328.008-.906.101-1.816.289-2.711.55l-352 104a16 16 0 00-4.012 28.872zm304.746-84.36l-67.511 67.52c-6.25 6.25-6.25 16.379 0 22.625 6.238 6.25 16.383 6.25 22.625 0l67.52-67.52-76.169 257.801-70.312-111.32 30.96-30.961c6.247-6.246 6.247-16.375 0-22.625-6.241-6.246-16.386-6.246-22.624 0l-30.961 30.953-111.32-70.305zm0 0"/></svg>