<svg xmlns="http://www.w3.org/2000/svg" viewBox="0 0 14.779 12.932"><path data-name="Icon awesome-sms" d="M7.389 0C3.308 0 0 2.687 0 6.004a5.329 5.329 0 001.645 3.773 7.343 7.343 0 01-1.581 2.765.229.229 0 00-.043.251.226.226 0 00.211.139 6.6 6.6 0 004.057-1.482 8.8 8.8 0 003.1.56c4.082 0 7.389-2.687 7.389-6S11.471 0 7.389 0zM3.7 7.85h-.352a.232.232 0 01-.231-.231v-.46a.232.232 0 01.231-.231H3.7c.173 0 .3-.1.3-.191a.153.153 0 00-.061-.11l-.632-.543a1.067 1.067 0 01-.384-.811 1.174 1.174 0 011.228-1.114H4.5a.232.232 0 01.231.231v.46a.232.232 0 01-.231.231h-.352c-.173 0-.3.1-.3.191a.153.153 0 00.061.11l.632.543a1.067 1.067 0 01.384.811A1.172 1.172 0 013.7 7.85zm5.537-.23a.232.232 0 01-.231.231h-.462a.232.232 0 01-.231-.231V5.65L7.6 7.262a.231.231 0 01-.413 0L6.466 5.65v1.97a.232.232 0 01-.231.231h-.462a.232.232 0 01-.231-.231v-3A.463.463 0 016 4.157h.462a.46.46 0 01.413.254l.511 1.022.514-1.022a.463.463 0 01.413-.254h.462a.463.463 0 01.462.462zm1.394.231h-.355a.232.232 0 01-.231-.231v-.461a.232.232 0 01.231-.231h.355c.173 0 .3-.1.3-.191a.153.153 0 00-.061-.11l-.632-.543a1.067 1.067 0 01-.384-.811 1.174 1.174 0 011.224-1.114h.352a.232.232 0 01.231.231v.46a.232.232 0 01-.231.231h-.355c-.173 0-.3.1-.3.191a.153.153 0 00.061.11l.632.543a1.067 1.067 0 01.384.811 1.169 1.169 0 01-1.221 1.114z"/></svg>