<svg xmlns="http://www.w3.org/2000/svg" viewBox="0 0 27 25"><path data-name="icon / upload-cloud" d="M12.15 23.611v-7.838l-1.762 1.75a1.322 1.322 0 01-1.909-.035 1.417 1.417 0 01.033-1.964l4.05-4.024a1.327 1.327 0 011.893.019l4.05 4.166a1.414 1.414 0 010 1.964 1.321 1.321 0 01-1.909 0l-1.746-1.8v7.759a1.35 1.35 0 11-2.7 0zM1.689 17.1A7.048 7.048 0 010 12.5a6.9 6.9 0 015.839-6.883A8.148 8.148 0 0113.5 0a8.147 8.147 0 017.662 5.617A6.894 6.894 0 0127 12.5a7.053 7.053 0 01-1.688 4.6 1.326 1.326 0 01-1.906.121 1.421 1.421 0 01-.117-1.963A4.229 4.229 0 0024.3 12.5a4.114 4.114 0 00-4.05-4.166h-.135a1.361 1.361 0 01-1.323-1.116 5.373 5.373 0 00-10.583 0 1.363 1.363 0 01-1.324 1.116h-.134A4.115 4.115 0 002.7 12.5a4.219 4.219 0 001.013 2.755 1.421 1.421 0 01-.119 1.963 1.323 1.323 0 01-1.905-.118z"/></svg>