<svg xmlns="http://www.w3.org/2000/svg" width="75.704" height="75.704"><g data-name="ضيفنى نهائي"><path data-name="Path 11908" d="M69.379 75.7H6.325A6.345 6.345 0 010 69.375V6.325A6.345 6.345 0 016.325 0H69.38a6.345 6.345 0 016.325 6.325V69.38a6.345 6.345 0 01-6.326 6.32z" fill="#c61a17"/><g data-name="Group 1631" fill="#fff"><path data-name="Path 11909" d="M63.931 48.9q-3.737 8.789-11.992 9.993l-10.733-.082v-.055h-7.447l-16.893-.11c-.027.027-.027.082-.055.11h-5.914V37.044l7.365.055v1.424l-.137 11.773 30.391.219c4-1.013 6.544-3.149 7.694-6.379a14.983 14.983 0 00.411-9.391 7.41 7.41 0 00-5.832-5.531l-19.741-.137v1.424l-.082 18.481-9.227-.055.137-28.94 7.748.055a9.814 9.814 0 002.628 2.3 8.9 8.9 0 005.312 1.2 8.182 8.182 0 005.12-2.081 9.237 9.237 0 001.232-1.314l7.611.055c7.447.575 12.02 4.052 13.69 10.377A27.657 27.657 0 0163.931 48.9z"/><path data-name="Path 11910" d="M43.368 16.838a6.7 6.7 0 01-1.2 2.519 6.975 6.975 0 01-.986 1.04 6.323 6.323 0 01-4.025 1.643 7 7 0 01-4.189-.958 7.381 7.381 0 01-2.053-1.807 5.092 5.092 0 01-.6-.958 6.534 6.534 0 01-.63-3.724 7.437 7.437 0 011.287-3.587 6.478 6.478 0 012.847-2.272 7.341 7.341 0 013.806-.465 6.563 6.563 0 015.613 4.572 7.6 7.6 0 01.13 3.997z"/></g></g></svg>